  0
SECTION
  2
HEADER
  9
$ACADVER
  1
AC1015
  9
$ACADMAINTVER
 70
     6
  9
$DWGCODEPAGE
  3
ANSI_1252
  9
$INSBASE
 10
0.0
 20
0.0
 30
0.0
  9
$EXTMIN
 10
0.0
 20
0.0
 30
0.0
  9
$EXTMAX
 10
304.8
 20
152.4
 30
0.0
  9
$LIMMIN
 10
0.0
 20
0.0
  9
$LIMMAX
 10
304.8
 20
152.4
  9
$ORTHOMODE
 70
     0
  9
$REGENMODE
 70
     1
  9
$FILLMODE
 70
     1
  9
$QTEXTMODE
 70
     0
  9
$MIRRTEXT
 70
     1
  9
$LTSCALE
 40
1.0
  9
$ATTMODE
 70
     1
  9
$TEXTSIZE
 40
3.5
  9
$TRACEWID
 40
1.0
  9
$TEXTSTYLE
  7
Standard
  9
$CLAYER
  8
0
  9
$CELTYPE
  6
ByLayer
  9
$CECOLOR
 62
   256
  9
$CELTSCALE
 40
1.0
  9
$DISPSILH
 70
     0
  9
$DIMSCALE
 40
1.0
  9
$DIMASZ
 40
3.302
  9
$DIMEXO
 40
1.0
  9
$DIMDLI
 40
3.75
  9
$DIMRND
 40
0.0
  9
$DIMDLE
 40
0.0
  9
$DIMEXE
 40
1.0
  9
$DIMTP
 40
0.0
  9
$DIMTM
 40
0.0
  9
$DIMTXT
 40
3.5
  9
$DIMCEN
 40
2.5
  9
$DIMTSZ
 40
0.0
  9
$DIMTOL
 70
     0
  9
$DIMLIM
 70
     0
  9
$DIMTIH
 70
     1
  9
$DIMTOH
 70
     1
  9
$DIMSE1
 70
     0
  9
$DIMSE2
 70
     0
  9
$DIMTAD
 70
     1
  9
$DIMZIN
 70
     0
  9
$DIMBLK
  1

  9
$DIMASO
 70
     1
  9
$DIMSHO
 70
     1
  9
$DIMPOST
  1

  9
$DIMAPOST
  1

  9
$DIMALT
 70
     0
  9
$DIMALTD
 70
     3
  9
$DIMALTF
 40
0.0393700787
  9
$DIMLFAC
 40
1.0
  9
$DIMTOFL
 70
     1
  9
$DIMTVP
 40
0.0
  9
$DIMTIX
 70
     0
  9
$DIMSOXD
 70
     0
  9
$DIMSAH
 70
     0
  9
$DIMBLK1
  1

  9
$DIMBLK2
  1

  9
$DIMSTYLE
  2
ISO-25
  9
$DIMCLRD
 70
     0
  9
$DIMCLRE
 70
     0
  9
$DIMCLRT
 70
     0
  9
$DIMTFAC
 40
1.0
  9
$DIMGAP
 40
1.524
  9
$DIMJUST
 70
     0
  9
$DIMSD1
 70
     0
  9
$DIMSD2
 70
     0
  9
$DIMTOLJ
 70
     0
  9
$DIMTZIN
 70
     0
  9
$DIMALTZ
 70
     0
  9
$DIMALTTZ
 70
     0
  9
$DIMUPT
 70
     0
  9
$DIMDEC
 70
     2
  9
$DIMTDEC
 70
     2
  9
$DIMALTU
 70
     2
  9
$DIMALTTD
 70
     3
  9
$DIMTXSTY
  7
Standard
  9
$DIMAUNIT
 70
     0
  9
$DIMADEC
 70
     2
  9
$DIMALTRND
 40
0.0
  9
$DIMAZIN
 70
     0
  9
$DIMDSEP
 70
    44
  9
$DIMATFIT
 70
     3
  9
$DIMFRAC
 70
     0
  9
$DIMLDRBLK
  1

  9
$DIMLUNIT
 70
     2
  9
$DIMLWD
 70
    -2
  9
$DIMLWE
 70
    -2
  9
$DIMTMOVE
 70
     0
  9
$LUNITS
 70
     2
  9
$LUPREC
 70
     5
  9
$SKETCHINC
 40
1.0
  9
$FILLETRAD
 40
10.0
  9
$AUNITS
 70
     0
  9
$AUPREC
 70
     2
  9
$MENU
  1
.
  9
$ELEVATION
 40
0.0
  9
$PELEVATION
 40
0.0
  9
$THICKNESS
 40
0.0
  9
$LIMCHECK
 70
     0
  9
$CHAMFERA
 40
10.0
  9
$CHAMFERB
 40
10.0
  9
$CHAMFERC
 40
20.0
  9
$CHAMFERD
 40
0.0
  9
$SKPOLY
 70
     0
  9
$TDCREATE
 40
2456927.400885579
  9
$TDUCREATE
 40
2456927.692552245
  9
$TDUPDATE
 40
2456927.400885868
  9
$TDUUPDATE
 40
2456927.692552535
  9
$TDINDWG
 40
0.0000000116
  9
$TDUSRTIMER
 40
0.0000000116
  9
$USRTIMER
 70
     1
  9
$ANGBASE
 50
0.0
  9
$ANGDIR
 70
     0
  9
$PDMODE
 70
     0
  9
$PDSIZE
 40
-1.0
  9
$PLINEWID
 40
0.0
  9
$SPLFRAME
 70
     0
  9
$SPLINETYPE
 70
     6
  9
$SPLINESEGS
 70
     8
  9
$HANDSEED
  5
175
  9
$SURFTAB1
 70
     6
  9
$SURFTAB2
 70
     6
  9
$SURFTYPE
 70
     6
  9
$SURFU
 70
     6
  9
$SURFV
 70
     6
  9
$UCSBASE
  2

  9
$UCSNAME
  2

  9
$UCSORG
 10
0.0
 20
0.0
 30
0.0
  9
$UCSXDIR
 10
1.0
 20
0.0
 30
0.0
  9
$UCSYDIR
 10
0.0
 20
1.0
 30
0.0
  9
$UCSORTHOREF
  2

  9
$UCSORTHOVIEW
 70
     0
  9
$UCSORGTOP
 10
0.0
 20
0.0
 30
0.0
  9
$UCSORGBOTTOM
 10
0.0
 20
0.0
 30
0.0
  9
$UCSORGLEFT
 10
0.0
 20
0.0
 30
0.0
  9
$UCSORGRIGHT
 10
0.0
 20
0.0
 30
0.0
  9
$UCSORGFRONT
 10
0.0
 20
0.0
 30
0.0
  9
$UCSORGBACK
 10
0.0
 20
0.0
 30
0.0
  9
$PUCSBASE
  2

  9
$PUCSNAME
  2

  9
$PUCSORG
 10
0.0
 20
0.0
 30
0.0
  9
$PUCSXDIR
 10
1.0
 20
0.0
 30
0.0
  9
$PUCSYDIR
 10
0.0
 20
1.0
 30
0.0
  9
$PUCSORTHOREF
  2

  9
$PUCSORTHOVIEW
 70
     0
  9
$PUCSORGTOP
 10
0.0
 20
0.0
 30
0.0
  9
$PUCSORGBOTTOM
 10
0.0
 20
0.0
 30
0.0
  9
$PUCSORGLEFT
 10
0.0
 20
0.0
 30
0.0
  9
$PUCSORGRIGHT
 10
0.0
 20
0.0
 30
0.0
  9
$PUCSORGFRONT
 10
0.0
 20
0.0
 30
0.0
  9
$PUCSORGBACK
 10
0.0
 20
0.0
 30
0.0
  9
$USERI1
 70
     0
  9
$USERI2
 70
     0
  9
$USERI3
 70
     0
  9
$USERI4
 70
     0
  9
$USERI5
 70
     0
  9
$USERR1
 40
0.0
  9
$USERR2
 40
0.0
  9
$USERR3
 40
0.0
  9
$USERR4
 40
0.0
  9
$USERR5
 40
0.0
  9
$WORLDVIEW
 70
     1
  9
$SHADEDGE
 70
     3
  9
$SHADEDIF
 70
    70
  9
$TILEMODE
 70
     1
  9
$MAXACTVP
 70
    64
  9
$PINSBASE
 10
0.0
 20
0.0
 30
0.0
  9
$PLIMCHECK
 70
     0
  9
$PEXTMIN
 10
1.0000000000E+20
 20
1.0000000000E+20
 30
1.0000000000E+20
  9
$PEXTMAX
 10
-1.0000000000E+20
 20
-1.0000000000E+20
 30
-1.0000000000E+20
  9
$PLIMMIN
 10
0.0
 20
0.0
  9
$PLIMMAX
 10
420.0
 20
297.0
  9
$UNITMODE
 70
     0
  9
$VISRETAIN
 70
     1
  9
$PLINEGEN
 70
     0
  9
$PSLTSCALE
 70
     1
  9
$TREEDEPTH
 70
  3020
  9
$CMLSTYLE
  2
Standard
  9
$CMLJUST
 70
     0
  9
$CMLSCALE
 40
20.0
  9
$PROXYGRAPHICS
 70
     1
  9
$MEASUREMENT
 70
     1
  9
$CELWEIGHT
370
    -1
  9
$ENDCAPS
280
     0
  9
$JOINSTYLE
280
     0
  9
$LWDISPLAY
290
     1
  9
$INSUNITS
 70
     4
  9
$HYPERLINKBASE
  1

  9
$STYLESHEET
  1

  9
$XEDIT
290
     1
  9
$CEPSNTYPE
380
     0
  9
$PSTYLEMODE
290
     1
  9
$FINGERPRINTGUID
  2
{53449F1F-8641-4144-9E1B-99089E820907}
  9
$VERSIONGUID
  2
{FAEB1C32-E019-11D5-929B-00C0DF256EC4}
  9
$EXTNAMES
290
     1
  9
$PSVPSCALE
 40
0.0
  9
$OLESTARTUP
290
     0
  0
ENDSEC
  0
SECTION
  2
CLASSES
  0
CLASS
  1
ACDBDICTIONARYWDFLT
  2
AcDbDictionaryWithDefault
  3
ObjectDBX Classes
 90
        0
280
     0
281
     0
  0
CLASS
  1
VISUALSTYLE
  2
AcDbVisualStyle
  3
ObjectDBX Classes
 90
     4095
280
     0
281
     0
  0
CLASS
  1
MATERIAL
  2
AcDbMaterial
  3
ObjectDBX Classes
 90
     1153
280
     0
281
     0
  0
CLASS
  1
ACDBPLACEHOLDER
  2
AcDbPlaceHolder
  3
ObjectDBX Classes
 90
        0
280
     0
281
     0
  0
CLASS
  1
LAYOUT
  2
AcDbLayout
  3
ObjectDBX Classes
 90
        0
280
     0
281
     0
  0
ENDSEC
  0
SECTION
  2
TABLES
  0
TABLE
  2
VPORT
  5
8
330
0
100
AcDbSymbolTable
 70
     1
  0
VPORT
  5
29
330
8
100
AcDbSymbolTableRecord
100
AcDbViewportTableRecord
  2
*Active
 70
     0
 10
0.0
 20
0.0
 11
1.0
 21
1.0
 12
152.4
 22
76.2
 13
0.0
 23
0.0
 14
10.0
 24
10.0
 15
10.0
 25
10.0
 16
0.0
 26
0.0
 36
1.0
 17
0.0
 27
0.0
 37
0.0
 40
152.4
 41
2.0
 42
50.0
 43
0.0
 44
0.0
 50
0.0
 51
0.0
 71
     0
 72
  2000
 73
     1
 74
     3
 75
     0
 76
     0
 77
     0
 78
     0
281
     0
 65
     1
110
0.0
120
0.0
130
0.0
111
1.0
121
0.0
131
0.0
112
0.0
122
1.0
132
0.0
 79
     0
146
0.0
  0
ENDTAB
  0
TABLE
  2
LTYPE
  5
5
330
0
100
AcDbSymbolTable
 70
     6
  0
LTYPE
  5
14
330
5
100
AcDbSymbolTableRecord
100
AcDbLinetypeTableRecord
  2
ByBlock
 70
     0
  3

 72
    65
 73
     0
 40
0.0
  0
LTYPE
  5
15
330
5
100
AcDbSymbolTableRecord
100
AcDbLinetypeTableRecord
  2
ByLayer
 70
     0
  3

 72
    65
 73
     0
 40
0.0
  0
LTYPE
  5
16
330
5
100
AcDbSymbolTableRecord
100
AcDbLinetypeTableRecord
  2
Continuous
 70
     0
  3
Solid line
 72
    65
 73
     0
 40
0.0
  0
LTYPE
  5
3F
330
5
100
AcDbSymbolTableRecord
100
AcDbLinetypeTableRecord
  2
HIDDEN
 70
     0
  3
Hidden __ __ __ __ __ __ __ __ __ __ __ __ __ __
 72
    65
 73
     2
 40
1.905
 49
1.27
 74
     0
 49
-0.635
 74
     0
  0
LTYPE
  5
40
330
5
100
AcDbSymbolTableRecord
100
AcDbLinetypeTableRecord
  2
PHANTOM
 70
     0
  3
Phantom ______  __  __  ______  __  __  ______
 72
    65
 73
     6
 40
12.7
 49
6.35
 74
     0
 49
-1.27
 74
     0
 49
1.27
 74
     0
 49
-1.27
 74
     0
 49
1.27
 74
     0
 49
-1.27
 74
     0
  0
LTYPE
  5
41
330
5
100
AcDbSymbolTableRecord
100
AcDbLinetypeTableRecord
  2
CENTER
 70
     0
  3
Center ____ _ ____ _ ____ _ ____ _ ____ _ ____
 72
    65
 73
     4
 40
10.16
 49
6.35
 74
     0
 49
-1.27
 74
     0
 49
1.27
 74
     0
 49
-1.27
 74
     0
  0
LTYPE
  5
42
330
5
100
AcDbSymbolTableRecord
100
AcDbLinetypeTableRecord
  2
CENTERX2
 70
     0
  3
Center (2x) ________  __  ________  __  _____
 72
    65
 73
     4
 40
20.32
 49
12.7
 74
     0
 49
-2.54
 74
     0
 49
2.54
 74
     0
 49
-2.54
 74
     0
  0
LTYPE
  5
43
330
5
100
AcDbSymbolTableRecord
100
AcDbLinetypeTableRecord
  2
DOT2
 70
     0
  3
Dot (.5x) ........................................
 72
    65
 73
     2
 40
0.635
 49
0.0
 74
     0
 49
-0.635
 74
     0
  0
ENDTAB
  0
TABLE
  2
LAYER
  5
2
330
0
100
AcDbSymbolTable
 70
     2
  0
LAYER
  5
10
330
2
100
AcDbSymbolTableRecord
100
AcDbLayerTableRecord
  2
0
 70
     0
 62
     7
  6
Continuous
370
    -3
390
F
  0
LAYER
  5
44
330
2
100
AcDbSymbolTableRecord
100
AcDbLayerTableRecord
  2
FORMAT
 70
     0
 62
     7
  6
Continuous
370
    -3
390
F
  0
ENDTAB
  0
TABLE
  2
STYLE
  5
3
330
0
100
AcDbSymbolTable
 70
     2
  0
STYLE
  5
11
330
3
100
AcDbSymbolTableRecord
100
AcDbTextStyleTableRecord
  2
Standard
 70
     0
 40
0.0
 41
1.0
 50
0.0
 71
     0
 42
3.5
  3
txt
  4

  0
STYLE
  5
172
330
3
100
AcDbSymbolTableRecord
100
AcDbTextStyleTableRecord
  2
SLDTEXTSTYLE0
 70
     0
 40
0.0
 41
0.7
 50
0.0
 71
     0
 42
0.2
  3
TXT
  4

  0
ENDTAB
  0
TABLE
  2
VIEW
  5
6
330
0
100
AcDbSymbolTable
 70
     0
  0
ENDTAB
  0
TABLE
  2
UCS
  5
7
330
0
100
AcDbSymbolTable
 70
     0
  0
ENDTAB
  0
TABLE
  2
APPID
  5
9
330
0
100
AcDbSymbolTable
 70
     1
  0
APPID
  5
12
330
9
100
AcDbSymbolTableRecord
100
AcDbRegAppTableRecord
  2
ACAD
 70
     0
  0
ENDTAB
  0
TABLE
  2
DIMSTYLE
  5
A
330
0
100
AcDbSymbolTable
 70
     1
100
AcDbDimStyleTable
  0
DIMSTYLE
105
27
330
A
100
AcDbSymbolTableRecord
100
AcDbDimStyleTableRecord
  2
ISO-25
 70
     0
 41
2.5
 42
0.625
 43
3.75
 44
1.25
 73
     0
 74
     0
 77
     1
 78
     8
140
2.5
141
2.5
143
0.0393700787
147
0.625
171
     3
172
     1
178
     0
271
     2
272
     2
274
     3
278
    44
283
     0
284
     8
340
11
  0
ENDTAB
  0
TABLE
  2
BLOCK_RECORD
  5
1
330
0
100
AcDbSymbolTable
 70
     1
  0
BLOCK_RECORD
  5
1F
330
1
100
AcDbSymbolTableRecord
100
AcDbBlockTableRecord
  2
*Model_Space
340
22
  0
BLOCK_RECORD
  5
1B
330
1
100
AcDbSymbolTableRecord
100
AcDbBlockTableRecord
  2
*Paper_Space
340
1E
  0
BLOCK_RECORD
  5
23
330
1
100
AcDbSymbolTableRecord
100
AcDbBlockTableRecord
  2
*Paper_Space0
340
26
  0
ENDTAB
  0
ENDSEC
  0
SECTION
  2
BLOCKS
  0
BLOCK
  5
20
330
1F
100
AcDbEntity
  8
0
100
AcDbBlockBegin
  2
*Model_Space
 70
     0
 10
0.0
 20
0.0
 30
0.0
  3
*Model_Space
  1

  0
ENDBLK
  5
21
330
1F
100
AcDbEntity
  8
0
100
AcDbBlockEnd
  0
BLOCK
  5
1C
330
1B
100
AcDbEntity
 67
     1
  8
0
100
AcDbBlockBegin
  2
*Paper_Space
 70
     0
 10
0.0
 20
0.0
 30
0.0
  3
*Paper_Space
  1

  0
ENDBLK
  5
1D
330
1B
100
AcDbEntity
 67
     1
  8
0
100
AcDbBlockEnd
  0
BLOCK
  5
24
330
23
100
AcDbEntity
  8
0
100
AcDbBlockBegin
  2
*Paper_Space0
 70
     0
 10
0.0
 20
0.0
 30
0.0
  3
*Paper_Space0
  1

  0
ENDBLK
  5
25
330
23
100
AcDbEntity
  8
0
100
AcDbBlockEnd
  0
ENDSEC
  0
SECTION
  2
ENTITIES
  0
LINE
  5
45
330
1F
100
AcDbEntity
  8
0
  6
Continuous
 62
     7
370
    15
100
AcDbLine
 10
116.8710734476
 20
145.4122369059
 30
0.0
 11
117.8751332767
 21
145.4122369059
 31
0.0
  0
LINE
  5
46
330
1F
100
AcDbEntity
  8
0
  6
Continuous
 62
     7
370
    15
100
AcDbLine
 10
116.8710734476
 20
145.9006984443
 30
0.0
 11
116.8710734476
 21
145.4122369059
 31
0.0
  0
LINE
  5
47
330
1F
100
AcDbEntity
  8
0
  6
Continuous
 62
     7
370
    15
100
AcDbLine
 10
116.6811161826
 20
145.9006984443
 30
0.0
 11
116.8710734476
 21
145.9006984443
 31
0.0
  0
LINE
  5
48
330
1F
100
AcDbEntity
  8
0
  6
Continuous
 62
     7
370
    15
100
AcDbLine
 10
116.6811161826
 20
145.4122369059
 30
0.0
 11
116.6811161826
 21
145.9006984443
 31
0.0
  0
LINE
  5
49
330
1F
100
AcDbEntity
  8
0
  6
Continuous
 62
     7
370
    15
100
AcDbLine
 10
116.4368854134
 20
145.4122369059
 30
0.0
 11
116.6811161826
 21
145.4122369059
 31
0.0
  0
LINE
  5
4A
330
1F
100
AcDbEntity
  8
0
  6
Continuous
 62
     7
370
    15
100
AcDbLine
 10
116.4368854134
 20
145.1951428888
 30
0.0
 11
116.4368854134
 21
145.4122369059
 31
0.0
  0
LINE
  5
4B
330
1F
100
AcDbEntity
  8
0
  6
Continuous
 62
     7
370
    15
100
AcDbLine
 10
116.6811161826
 20
145.1951428888
 30
0.0
 11
116.4368854134
 21
145.1951428888
 31
0.0
  0
LINE
  5
4C
330
1F
100
AcDbEntity
  8
0
  6
Continuous
 62
     7
370
    15
100
AcDbLine
 10
116.6811161826
 20
143.7297582734
 30
0.0
 11
116.6811161826
 21
145.1951428888
 31
0.0
  0
LINE
  5
4D
330
1F
100
AcDbEntity
  8
0
  6
Continuous
 62
     7
370
    15
100
AcDbLine
 10
116.7197012521
 20
143.7297582734
 30
0.0
 11
116.6811161826
 21
143.7297582734
 31
0.0
  0
LINE
  5
4E
330
1F
100
AcDbEntity
  8
0
  6
Continuous
 62
     7
370
    15
100
AcDbLine
 10
117.8751332767
 20
145.4122369059
 30
0.0
 11
116.7197012521
 21
143.7297582734
 31
0.0
  0
LINE
  5
4F
330
1F
100
AcDbEntity
  8
0
  6
Continuous
 62
     7
370
    15
100
AcDbLine
 10
137.3965066197
 20
64.6485334574
 30
0.0
 11
143.4925066197
 21
64.6485334574
 31
0.0
  0
LINE
  5
50
330
1F
100
AcDbEntity
  8
0
  6
Continuous
 62
     7
370
    15
100
AcDbLine
 10
143.4925066197
 20
64.6485334574
 30
0.0
 11
143.4925066197
 21
69.7285334574
 31
0.0
  0
LINE
  5
51
330
1F
100
AcDbEntity
  8
0
  6
Continuous
 62
     7
370
    15
100
AcDbLine
 10
143.4925066197
 20
69.7285334574
 30
0.0
 11
137.3965066197
 21
69.7285334574
 31
0.0
  0
LINE
  5
52
330
1F
100
AcDbEntity
  8
0
  6
Continuous
 62
     7
370
    15
100
AcDbLine
 10
137.3965066197
 20
69.7285334574
 30
0.0
 11
137.3965066197
 21
64.6485334574
 31
0.0
  0
LINE
  5
53
330
1F
100
AcDbEntity
  8
0
  6
Continuous
 62
     7
370
    15
100
AcDbLine
 10
133.2690066197
 20
130.8155334574
 30
0.0
 11
131.1100066197
 21
130.8155334574
 31
0.0
  0
LINE
  5
54
330
1F
100
AcDbEntity
  8
0
  6
Continuous
 62
     7
370
    15
100
AcDbLine
 10
131.1100066197
 20
130.8155334574
 30
0.0
 11
131.1100066197
 21
124.7195334574
 31
0.0
  0
LINE
  5
55
330
1F
100
AcDbEntity
  8
0
  6
Continuous
 62
     7
370
    15
100
AcDbLine
 10
131.1100066197
 20
124.7195334574
 30
0.0
 11
133.2690066197
 21
124.7195334574
 31
0.0
  0
LINE
  5
56
330
1F
100
AcDbEntity
  8
0
  6
Continuous
 62
     7
370
    15
100
AcDbLine
 10
133.2690066197
 20
124.7195334574
 30
0.0
 11
133.2690066197
 21
130.8155334574
 31
0.0
  0
LINE
  5
57
330
1F
100
AcDbEntity
  8
0
  6
Continuous
 62
     7
370
    15
100
AcDbLine
 10
153.7795066197
 20
44.3285334574
 30
0.0
 11
143.7465066197
 21
44.3285334574
 31
0.0
  0
LINE
  5
58
330
1F
100
AcDbEntity
  8
0
  6
Continuous
 62
     7
370
    15
100
AcDbLine
 10
143.7465066197
 20
44.3285334574
 30
0.0
 11
143.7465066197
 21
38.3595334574
 31
0.0
  0
LINE
  5
59
330
1F
100
AcDbEntity
  8
0
  6
Continuous
 62
     7
370
    15
100
AcDbLine
 10
143.7465066197
 20
38.3595334574
 30
0.0
 11
153.7795066197
 21
38.3595334574
 31
0.0
  0
LINE
  5
5A
330
1F
100
AcDbEntity
  8
0
  6
Continuous
 62
     7
370
    15
100
AcDbLine
 10
153.7795066197
 20
38.3595334574
 30
0.0
 11
153.7795066197
 21
44.3285334574
 31
0.0
  0
ARC
  5
5B
330
1F
100
AcDbEntity
  8
0
  6
Continuous
 62
     7
370
    15
100
AcDbCircle
 10
115.0445066197
 20
144.6585334574
 30
0.0
 40
5.080000000000041
100
AcDbArc
 50
90.0
 51
180.0
  0
LINE
  5
5C
330
1F
100
AcDbEntity
  8
0
  6
Continuous
 62
     7
370
    15
100
AcDbLine
 10
212.8345066197
 20
149.7385334574
 30
0.0
 11
115.0445066197
 21
149.7385334574
 31
0.0
  0
ARC
  5
5D
330
1F
100
AcDbEntity
  8
0
  6
Continuous
 62
     7
370
    15
100
AcDbCircle
 10
212.8345066197
 20
144.6585334574
 30
0.0
 40
5.080000000000013
100
AcDbArc
 50
0.0
 51
90.0
  0
LINE
  5
5E
330
1F
100
AcDbEntity
  8
0
  6
Continuous
 62
     7
370
    15
100
AcDbLine
 10
217.9145066197
 20
7.4985334574
 30
0.0
 11
217.9145066197
 21
144.6585334574
 31
0.0
  0
ARC
  5
5F
330
1F
100
AcDbEntity
  8
0
  6
Continuous
 62
     7
370
    15
100
AcDbCircle
 10
212.8345066197
 20
7.4985334574
 30
0.0
 40
5.080000000000013
100
AcDbArc
 50
270.0
 51
0.0
  0
LINE
  5
60
330
1F
100
AcDbEntity
  8
0
  6
Continuous
 62
     7
370
    15
100
AcDbLine
 10
115.0445066197
 20
2.4185334574
 30
0.0
 11
212.8345066197
 21
2.4185334574
 31
0.0
  0
ARC
  5
61
330
1F
100
AcDbEntity
  8
0
  6
Continuous
 62
     7
370
    15
100
AcDbCircle
 10
115.0445066197
 20
7.4985334574
 30
0.0
 40
5.080000000000002
100
AcDbArc
 50
180.0
 51
270.0
  0
LINE
  5
62
330
1F
100
AcDbEntity
  8
0
  6
Continuous
 62
     7
370
    15
100
AcDbLine
 10
109.9645066197
 20
144.6585334574
 30
0.0
 11
109.9645066197
 21
7.4985334574
 31
0.0
  0
LINE
  5
63
330
1F
100
AcDbEntity
  8
0
  6
Continuous
 62
     7
370
    15
100
AcDbLine
 10
184.1325066197
 20
44.3285334574
 30
0.0
 11
174.0995066197
 21
44.3285334574
 31
0.0
  0
LINE
  5
64
330
1F
100
AcDbEntity
  8
0
  6
Continuous
 62
     7
370
    15
100
AcDbLine
 10
174.0995066197
 20
44.3285334574
 30
0.0
 11
174.0995066197
 21
38.3595334574
 31
0.0
  0
LINE
  5
65
330
1F
100
AcDbEntity
  8
0
  6
Continuous
 62
     7
370
    15
100
AcDbLine
 10
174.0995066197
 20
38.3595334574
 30
0.0
 11
184.1325066197
 21
38.3595334574
 31
0.0
  0
LINE
  5
66
330
1F
100
AcDbEntity
  8
0
  6
Continuous
 62
     7
370
    15
100
AcDbLine
 10
184.1325066197
 20
38.3595334574
 30
0.0
 11
184.1325066197
 21
44.3285334574
 31
0.0
  0
LINE
  5
67
330
1F
100
AcDbEntity
  8
0
  6
Continuous
 62
     7
370
    15
100
AcDbLine
 10
170.7290066197
 20
130.8155334574
 30
0.0
 11
168.5700066197
 21
130.8155334574
 31
0.0
  0
LINE
  5
68
330
1F
100
AcDbEntity
  8
0
  6
Continuous
 62
     7
370
    15
100
AcDbLine
 10
168.5700066197
 20
130.8155334574
 30
0.0
 11
168.5700066197
 21
124.7195334574
 31
0.0
  0
LINE
  5
69
330
1F
100
AcDbEntity
  8
0
  6
Continuous
 62
     7
370
    15
100
AcDbLine
 10
168.5700066197
 20
124.7195334574
 30
0.0
 11
170.7290066197
 21
124.7195334574
 31
0.0
  0
LINE
  5
6A
330
1F
100
AcDbEntity
  8
0
  6
Continuous
 62
     7
370
    15
100
AcDbLine
 10
170.7290066197
 20
124.7195334574
 30
0.0
 11
170.7290066197
 21
130.8155334574
 31
0.0
  0
LINE
  5
6B
330
1F
100
AcDbEntity
  8
0
  6
Continuous
 62
     7
370
    15
100
AcDbLine
 10
184.3865066197
 20
69.7285334574
 30
0.0
 11
184.3865066197
 21
64.6485334574
 31
0.0
  0
LINE
  5
6C
330
1F
100
AcDbEntity
  8
0
  6
Continuous
 62
     7
370
    15
100
AcDbLine
 10
184.3865066197
 20
64.6485334574
 30
0.0
 11
190.4825066197
 21
64.6485334574
 31
0.0
  0
LINE
  5
6D
330
1F
100
AcDbEntity
  8
0
  6
Continuous
 62
     7
370
    15
100
AcDbLine
 10
190.4825066197
 20
64.6485334574
 30
0.0
 11
190.4825066197
 21
69.7285334574
 31
0.0
  0
LINE
  5
6E
330
1F
100
AcDbEntity
  8
0
  6
Continuous
 62
     7
370
    15
100
AcDbLine
 10
190.4825066197
 20
69.7285334574
 30
0.0
 11
184.3865066197
 21
69.7285334574
 31
0.0
  0
LINE
  5
6F
330
1F
100
AcDbEntity
  8
0
  6
Continuous
 62
     7
370
    15
100
AcDbLine
 10
117.5020029348
 20
145.1951428888
 30
0.0
 11
116.8710734476
 21
145.1951428888
 31
0.0
  0
LINE
  5
70
330
1F
100
AcDbEntity
  8
0
  6
Continuous
 62
     7
370
    15
100
AcDbLine
 10
116.8710734476
 20
145.1951428888
 30
0.0
 11
116.8710734476
 21
144.2758854102
 31
0.0
  0
LINE
  5
71
330
1F
100
AcDbEntity
  8
0
  6
Continuous
 62
     7
370
    15
100
AcDbLine
 10
116.8710734476
 20
144.2758854102
 30
0.0
 11
117.5020029348
 21
145.1951428888
 31
0.0
  0
LINE
  5
72
330
1F
100
AcDbEntity
  8
0
  6
Continuous
 62
     7
370
    15
100
AcDbLine
 10
295.9079711516
 20
39.7464562863
 30
0.0
 11
295.9079711516
 21
41.6460290741
 31
0.0
  0
LINE
  5
73
330
1F
100
AcDbEntity
  8
0
  6
Continuous
 62
     7
370
    15
100
AcDbLine
 10
296.0979274292
 20
39.7464562863
 30
0.0
 11
295.9079711516
 21
39.7464562863
 31
0.0
  0
LINE
  5
74
330
1F
100
AcDbEntity
  8
0
  6
Continuous
 62
     7
370
    15
100
AcDbLine
 10
296.0979274292
 20
41.8631231602
 30
0.0
 11
296.0979274292
 21
39.7464562863
 31
0.0
  0
LINE
  5
75
330
1F
100
AcDbEntity
  8
0
  6
Continuous
 62
     7
370
    15
100
AcDbLine
 10
295.7065633316
 20
41.8631231602
 30
0.0
 11
296.0979274292
 21
41.8631231602
 31
0.0
  0
LINE
  5
76
330
1F
100
AcDbEntity
  8
0
  6
Continuous
 62
     7
370
    15
100
AcDbLine
 10
295.5823286254
 20
41.6460290741
 30
0.0
 11
295.7065633316
 21
41.8631231602
 31
0.0
  0
LINE
  5
77
330
1F
100
AcDbEntity
  8
0
  6
Continuous
 62
     7
370
    15
100
AcDbLine
 10
295.9079711516
 20
41.6460290741
 30
0.0
 11
295.5823286254
 21
41.6460290741
 31
0.0
  0
LINE
  5
78
330
1F
100
AcDbEntity
  8
0
  6
Continuous
 62
     7
370
    15
100
AcDbLine
 10
273.7134850402
 20
80.0408834781
 30
0.0
 11
273.0511889611
 21
79.9856933024
 31
0.0
  0
LINE
  5
79
330
1F
100
AcDbEntity
  8
0
  6
Continuous
 62
     7
370
    15
100
AcDbLine
 10
273.0511889611
 20
79.9856933024
 30
0.0
 11
272.9959969227
 21
79.2130122151
 31
0.0
  0
LINE
  5
7A
330
1F
100
AcDbEntity
  8
0
  6
Continuous
 62
     7
370
    15
100
AcDbLine
 10
272.9959969227
 20
79.2130122151
 30
0.0
 11
273.6582939331
 21
79.1578220393
 31
0.0
  0
SPLINE
  5
7B
330
1F
100
AcDbEntity
  8
0
  6
Continuous
 62
     7
370
    15
100
AcDbSpline
210
0.0
220
0.0
230
1.0
 70
     8
 71
     3
 72
     8
 73
     4
 74
     0
 42
0.00000001
 43
0.00000001
 12
1.0
 22
0.0
 32
0.0
 13
1.0
 23
0.0
 33
0.0
 40
0.0
 40
0.0
 40
0.0
 40
0.0
 40
1.0
 40
1.0
 40
1.0
 40
1.0
 10
273.6582939881641
 20
79.15782128857387
 30
0.0
 10
273.6947044658936
 20
77.19165549117973
 30
0.0
 10
273.1551657213319
 20
73.97796092553163
 30
0.0
 10
276.086715454053
 20
74.4665525476518
 30
0.0
  0
LINE
  5
7C
330
1F
100
AcDbEntity
  8
0
  6
Continuous
 62
     7
370
    15
100
AcDbLine
 10
276.0867156838
 20
74.4665527906
 30
0.0
 11
276.1419067909
 21
75.2944240537
 31
0.0
  0
SPLINE
  5
7D
330
1F
100
AcDbEntity
  8
0
  6
Continuous
 62
     7
370
    15
100
AcDbSpline
210
0.0
220
0.0
230
1.0
 70
     8
 71
     3
 72
     8
 73
     4
 74
     0
 42
0.00000001
 43
0.00000001
 12
1.0
 22
0.0
 32
0.0
 13
1.0
 23
0.0
 33
0.0
 40
0.0
 40
0.0
 40
0.0
 40
0.0
 40
1.0
 40
1.0
 40
1.0
 40
1.0
 10
276.1419068510052
 20
75.29442350193217
 30
0.0
 10
273.9472248662094
 20
75.49394004600451
 30
0.0
 10
274.7472824970783
 20
76.8025677825444
 30
0.0
 10
274.7069305302526
 20
79.10262989162185
 30
0.0
  0
LINE
  5
7E
330
1F
100
AcDbEntity
  8
0
  6
Continuous
 62
     7
370
    15
100
AcDbLine
 10
274.7069305558
 20
79.1026281383
 30
0.0
 11
275.9763325382
 21
79.1578220393
 31
0.0
  0
LINE
  5
7F
330
1F
100
AcDbEntity
  8
0
  6
Continuous
 62
     7
370
    15
100
AcDbLine
 10
275.9763325382
 20
79.1578220393
 30
0.0
 11
276.0315236453
 21
79.9304994013
 31
0.0
  0
LINE
  5
80
330
1F
100
AcDbEntity
  8
0
  6
Continuous
 62
     7
370
    15
100
AcDbLine
 10
276.0315236453
 20
79.9304994013
 30
0.0
 11
274.7621216629
 21
79.9856933024
 31
0.0
  0
LINE
  5
81
330
1F
100
AcDbEntity
  8
0
  6
Continuous
 62
     7
370
    15
100
AcDbLine
 10
274.7621216629
 20
79.9856933024
 30
0.0
 11
274.7069305558
 21
81.4206676748
 31
0.0
  0
LINE
  5
82
330
1F
100
AcDbEntity
  8
0
  6
Continuous
 62
     7
370
    15
100
AcDbLine
 10
274.7069305558
 20
81.4206676748
 30
0.0
 11
273.7134850402
 21
81.4758615758
 31
0.0
  0
LINE
  5
83
330
1F
100
AcDbEntity
  8
0
  6
Continuous
 62
     7
370
    15
100
AcDbLine
 10
273.7134850402
 20
81.4758615758
 30
0.0
 11
273.7134850402
 21
80.0408834781
 31
0.0
  0
LINE
  5
84
330
1F
100
AcDbEntity
  8
0
  6
Continuous
 62
     7
370
    15
100
AcDbLine
 10
270.8987236772
 20
80.979138818
 30
0.0
 11
271.7817860473
 21
80.9239449169
 31
0.0
  0
LINE
  5
85
330
1F
100
AcDbEntity
  8
0
  6
Continuous
 62
     7
370
    15
100
AcDbLine
 10
271.7817860473
 20
80.9239449169
 30
0.0
 11
271.8369780858
 21
82.0277745094
 31
0.0
  0
LINE
  5
86
330
1F
100
AcDbEntity
  8
0
  6
Continuous
 62
     7
370
    15
100
AcDbLine
 10
271.8369780858
 20
82.0277745094
 30
0.0
 11
270.8987236772
 21
82.0829646852
 31
0.0
  0
LINE
  5
87
330
1F
100
AcDbEntity
  8
0
  6
Continuous
 62
     7
370
    15
100
AcDbLine
 10
270.8987236772
 20
82.0829646852
 30
0.0
 11
270.8987236772
 21
80.979138818
 31
0.0
  0
LINE
  5
88
330
1F
100
AcDbEntity
  8
0
  6
Continuous
 62
     7
370
    15
100
AcDbLine
 10
270.2364275981
 20
79.1578220393
 30
0.0
 11
270.8435325701
 21
79.1026281383
 31
0.0
  0
SPLINE
  5
89
330
1F
100
AcDbEntity
  8
0
  6
Continuous
 62
     7
370
    15
100
AcDbSpline
210
0.0
220
0.0
230
1.0
 70
     8
 71
     3
 72
    11
 73
     7
 74
     0
 42
0.00000001
 43
0.00000001
 12
1.0
 22
0.0
 32
0.0
 13
1.0
 23
0.0
 33
0.0
 40
0.0
 40
0.0
 40
0.0
 40
0.0
 40
1.0
 40
1.0
 40
1.0
 40
2.0
 40
2.0
 40
2.0
 40
2.0
 10
270.8435327436109
 20
79.10262989162185
 30
0.0
 10
270.8619298759281
 20
77.7964334970906
 30
0.0
 10
270.8491525563152
 20
76.48942575988029
 30
0.0
 10
270.8987241405628
 20
75.18404070802815
 30
0.0
 10
270.9128780172383
 20
74.81132195557738
 30
0.0
 10
270.9899576054045
 20
74.76804197116171
 30
0.0
 10
271.1746811253229
 20
74.52174394460384
 30
0.0
  0
LINE
  5
8A
330
1F
100
AcDbEntity
  8
0
  6
Continuous
 62
     7
370
    15
100
AcDbLine
 10
271.1746810753
 20
74.5217429664
 30
0.0
 11
272.4992750962
 21
74.4665527906
 31
0.0
  0
LINE
  5
8B
330
1F
100
AcDbEntity
  8
0
  6
Continuous
 62
     7
370
    15
100
AcDbLine
 10
272.4992750962
 20
74.4665527906
 30
0.0
 11
272.5544662033
 21
75.2944240537
 31
0.0
  0
LINE
  5
8C
330
1F
100
AcDbEntity
  8
0
  6
Continuous
 62
     7
370
    15
100
AcDbLine
 10
272.5544662033
 20
75.2944240537
 30
0.0
 11
271.9473602999
 21
75.3496142294
 31
0.0
  0
SPLINE
  5
8D
330
1F
100
AcDbEntity
  8
0
  6
Continuous
 62
     7
370
    15
100
AcDbSpline
210
0.0
220
0.0
230
1.0
 70
     8
 71
     3
 72
    11
 73
     7
 74
     0
 42
0.00000001
 43
0.00000001
 12
1.0
 22
0.0
 32
0.0
 13
1.0
 23
0.0
 33
0.0
 40
0.0
 40
0.0
 40
0.0
 40
0.0
 40
1.0
 40
1.0
 40
1.0
 40
2.0
 40
2.0
 40
2.0
 40
2.0
 10
271.9473606826513
 20
75.34961489888423
 30
0.0
 10
271.9289635503339
 20
76.65581129341545
 30
0.0
 10
271.9417408699469
 20
77.96281903062571
 30
0.0
 10
271.8921692856993
 20
79.26820408247791
 30
0.0
 10
271.8780154090239
 20
79.64092283492867
 30
0.0
 10
271.8009358208575
 20
79.68420281934434
 30
0.0
 10
271.6162123009391
 20
79.93050084590219
 30
0.0
  0
LINE
  5
8E
330
1F
100
AcDbEntity
  8
0
  6
Continuous
 62
     7
370
    15
100
AcDbLine
 10
271.6162127261
 20
79.9304994013
 30
0.0
 11
270.2364275981
 21
79.9856933024
 31
0.0
  0
LINE
  5
8F
330
1F
100
AcDbEntity
  8
0
  6
Continuous
 62
     7
370
    15
100
AcDbLine
 10
270.2364275981
 20
79.9856933024
 30
0.0
 11
270.2364275981
 21
79.1578220393
 31
0.0
  0
LINE
  5
90
330
1F
100
AcDbEntity
  8
0
  6
Continuous
 62
     7
370
    15
100
AcDbLine
 10
264.4413306196
 20
82.0829646852
 30
0.0
 11
264.4413306196
 21
81.2550934222
 31
0.0
  0
LINE
  5
91
330
1F
100
AcDbEntity
  8
0
  6
Continuous
 62
     7
370
    15
100
AcDbLine
 10
264.4413306196
 20
81.2550934222
 30
0.0
 11
265.0484360572
 21
81.1999032464
 31
0.0
  0
LINE
  5
92
330
1F
100
AcDbEntity
  8
0
  6
Continuous
 62
     7
370
    15
100
AcDbLine
 10
265.0484360572
 20
81.1999032464
 30
0.0
 11
265.10362763
 21
74.5217429664
 31
0.0
  0
LINE
  5
93
330
1F
100
AcDbEntity
  8
0
  6
Continuous
 62
     7
370
    15
100
AcDbLine
 10
265.10362763
 20
74.5217429664
 30
0.0
 11
266.0418811072
 21
74.4665527906
 31
0.0
  0
LINE
  5
94
330
1F
100
AcDbEntity
  8
0
  6
Continuous
 62
     7
370
    15
100
AcDbLine
 10
266.0418811072
 20
74.4665527906
 30
0.0
 11
266.09707268
 21
77.0605469312
 31
0.0
  0
SPLINE
  5
95
330
1F
100
AcDbEntity
  8
0
  6
Continuous
 62
     7
370
    15
100
AcDbSpline
210
0.0
220
0.0
230
1.0
 70
     8
 71
     3
 72
    17
 73
    13
 74
     0
 42
0.00000001
 43
0.00000001
 12
1.0
 22
0.0
 32
0.0
 13
1.0
 23
0.0
 33
0.0
 40
0.0
 40
0.0
 40
0.0
 40
0.0
 40
1.0
 40
1.0
 40
1.0
 40
2.0
 40
2.0
 40
2.0
 40
3.0
 40
3.0
 40
3.0
 40
4.0
 40
4.0
 40
4.0
 40
4.0
 10
266.0970726057367
 20
77.06054820439695
 30
0.0
 10
266.3249160032196
 20
77.11750905376768
 30
0.0
 10
266.6884811236234
 20
77.15733231271204
 30
0.0
 10
266.869752163065
 20
76.9501654104929
 30
0.0
 10
266.9510193462932
 20
76.85728862966073
 30
0.0
 10
266.9740969964827
 20
76.72616840429808
 30
0.0
 10
267.0353263539211
 20
76.61901702878076
 30
0.0
 10
267.3458346811437
 20
76.07562745614122
 30
0.0
 10
267.6503132696621
 20
75.33948147839583
 30
0.0
 10
268.0287714990577
 20
74.85289232631601
 30
0.0
 10
268.472884897395
 20
74.28188938559644
 30
0.0
 10
268.5909261165901
 20
74.51074364766001
 30
0.0
 10
269.5189392167622
 20
74.4665525476518
 30
0.0
  0
LINE
  5
96
330
1F
100
AcDbEntity
  8
0
  6
Continuous
 62
     7
370
    15
100
AcDbLine
 10
269.5189394806
 20
74.4665527906
 30
0.0
 11
269.5741305877
 21
75.2944240537
 31
0.0
  0
SPLINE
  5
97
330
1F
100
AcDbEntity
  8
0
  6
Continuous
 62
     7
370
    15
100
AcDbSpline
210
0.0
220
0.0
230
1.0
 70
     8
 71
     3
 72
    11
 73
     7
 74
     0
 42
0.00000001
 43
0.00000001
 12
1.0
 22
0.0
 32
0.0
 13
1.0
 23
0.0
 33
0.0
 40
0.0
 40
0.0
 40
0.0
 40
0.0
 40
1.0
 40
1.0
 40
1.0
 40
2.0
 40
2.0
 40
2.0
 40
2.0
 10
269.5741306137143
 20
75.29442350193217
 30
0.0
 10
269.3533650259062
 20
75.33121776656684
 30
0.0
 10
269.1270332694712
 20
75.34332074749875
 30
0.0
 10
268.91183385029
 20
75.40480629583624
 30
0.0
 10
268.7794491277511
 20
75.44263050227593
 30
0.0
 10
267.9215899273123
 20
77.22292117309425
 30
0.0
 10
267.6424317203935
 20
77.50207938001313
 30
0.0
  0
LINE
  5
98
330
1F
100
AcDbEntity
  8
0
  6
Continuous
 62
     7
370
    15
100
AcDbLine
 10
267.6424315948
 20
77.5020795133
 30
0.0
 11
269.5189394806
 21
79.9304994013
 31
0.0
  0
SPLINE
  5
99
330
1F
100
AcDbEntity
  8
0
  6
Continuous
 62
     7
370
    15
100
AcDbSpline
210
0.0
220
0.0
230
1.0
 70
     8
 71
     3
 72
    14
 73
    10
 74
     0
 42
0.00000001
 43
0.00000001
 12
1.0
 22
0.0
 32
0.0
 13
1.0
 23
0.0
 33
0.0
 40
0.0
 40
0.0
 40
0.0
 40
0.0
 40
1.0
 40
1.0
 40
1.0
 40
2.0
 40
2.0
 40
2.0
 40
3.0
 40
3.0
 40
3.0
 40
3.0
 10
269.5189392167622
 20
79.93050084590219
 30
0.0
 10
269.1509965704154
 20
79.94889797821955
 30
0.0
 10
268.7806687173966
 20
80.03138692281358
 30
0.0
 10
268.4151112777217
 20
79.98569224285423
 30
0.0
 10
268.1899305640447
 20
79.95754465364463
 30
0.0
 10
267.0985334981723
 20
78.13473970310064
 30
0.0
 10
266.869752163065
 20
78.05399334953339
 30
0.0
 10
266.6435577709721
 20
77.97416003467704
 30
0.0
 10
266.3914267228142
 20
78.0171990848987
 30
0.0
 10
266.1522640026888
 20
77.99880195258139
 30
0.0
  0
SPLINE
  5
9A
330
1F
100
AcDbEntity
  8
0
  6
Continuous
 62
     7
370
    15
100
AcDbSpline
210
0.0
220
0.0
230
1.0
 70
     8
 71
     3
 72
    11
 73
     7
 74
     0
 42
0.00000001
 43
0.00000001
 12
1.0
 22
0.0
 32
0.0
 13
1.0
 23
0.0
 33
0.0
 40
0.0
 40
0.0
 40
0.0
 40
0.0
 40
1.0
 40
1.0
 40
1.0
 40
2.0
 40
2.0
 40
2.0
 40
2.0
 10
266.1522640026888
 20
77.99880195258139
 30
0.0
 10
266.1338668703714
 20
79.17621842089123
 30
0.0
 10
266.1474931875265
 20
80.35457111574875
 30
0.0
 10
266.0970726057367
 20
81.5310513575109
 30
0.0
 10
266.061218642185
 20
82.36764384038469
 30
0.0
 10
264.9208451674556
 20
82.06378474822
 30
0.0
 10
264.441330697176
 20
82.08296532703116
 30
0.0
  0
LINE
  5
9B
330
1F
100
AcDbEntity
  8
0
  6
Continuous
 62
     7
370
    15
100
AcDbLine
 10
258.0943200089
 20
79.9856933024
 30
0.0
 11
258.039128669
 21
79.1578220393
 31
0.0
  0
LINE
  5
9C
330
1F
100
AcDbEntity
  8
0
  6
Continuous
 62
     7
370
    15
100
AcDbLine
 10
258.039128669
 20
79.1578220393
 30
0.0
 11
258.6462341067
 21
79.1026281383
 31
0.0
  0
LINE
  5
9D
330
1F
100
AcDbEntity
  8
0
  6
Continuous
 62
     7
370
    15
100
AcDbLine
 10
258.6462341067
 20
79.1026281383
 30
0.0
 11
258.7014254466
 21
72.4244715836
 31
0.0
  0
LINE
  5
9E
330
1F
100
AcDbEntity
  8
0
  6
Continuous
 62
     7
370
    15
100
AcDbLine
 10
258.7014254466
 20
72.4244715836
 30
0.0
 11
259.6396791567
 21
72.3692776825
 31
0.0
  0
LINE
  5
9F
330
1F
100
AcDbEntity
  8
0
  6
Continuous
 62
     7
370
    15
100
AcDbLine
 10
259.6396791567
 20
72.3692776825
 30
0.0
 11
259.694870613
 21
74.9632755484
 31
0.0
  0
LINE
  5
A0
330
1F
100
AcDbEntity
  8
0
  6
Continuous
 62
     7
370
    15
100
AcDbLine
 10
259.694870613
 20
74.9632755484
 30
0.0
 11
261.1298468771
 21
74.300978538
 31
0.0
  0
SPLINE
  5
A1
330
1F
100
AcDbEntity
  8
0
  6
Continuous
 62
     7
370
    15
100
AcDbSpline
210
0.0
220
0.0
230
1.0
 70
     8
 71
     3
 72
    17
 73
    13
 74
     0
 42
0.00000001
 43
0.00000001
 12
1.0
 22
0.0
 32
0.0
 13
1.0
 23
0.0
 33
0.0
 40
0.0
 40
0.0
 40
0.0
 40
0.0
 40
1.0
 40
1.0
 40
1.0
 40
2.0
 40
2.0
 40
2.0
 40
3.0
 40
3.0
 40
3.0
 40
4.0
 40
4.0
 40
4.0
 40
4.0
 10
261.1298468800545
 20
74.30097835679575
 30
0.0
 10
261.7297666667627
 20
74.37596833013427
 30
0.0
 10
262.3666307255472
 20
74.43142613963153
 30
0.0
 10
262.8407801855673
 20
74.85289232631601
 30
0.0
 10
263.7682644316044
 20
75.67732276723785
 30
0.0
 10
263.8521671104937
 20
76.75660824895961
 30
0.0
 10
263.7238425367997
 20
77.94361055562935
 30
0.0
 10
263.5606512138315
 20
79.45313029308385
 30
0.0
 10
262.4955374917827
 20
80.15126643371032
 30
0.0
 10
261.1298468800545
 20
80.15126643371032
 30
0.0
 10
260.6039984188042
 20
80.15126643371032
 30
0.0
 10
260.094880679708
 20
79.78897726059058
 30
0.0
 10
259.6948705593019
 20
79.48896967028601
 30
0.0
  0
SPLINE
  5
A2
330
1F
100
AcDbEntity
  8
0
  6
Continuous
 62
     7
370
    15
100
AcDbSpline
210
0.0
220
0.0
230
1.0
 70
     8
 71
     3
 72
     8
 73
     4
 74
     0
 42
0.00000001
 43
0.00000001
 12
1.0
 22
0.0
 32
0.0
 13
1.0
 23
0.0
 33
0.0
 40
0.0
 40
0.0
 40
0.0
 40
0.0
 40
1.0
 40
1.0
 40
1.0
 40
1.0
 10
259.6948705593019
 20
79.48896967028601
 30
0.0
 10
259.4397251513152
 20
80.25440589424622
 30
0.0
 10
258.9774055318906
 20
79.948897014346
 30
0.0
 10
258.0943200476933
 20
79.98569224285423
 30
0.0
  0
LINE
  5
A3
330
1F
100
AcDbEntity
  8
0
  6
Continuous
 62
     7
370
    15
100
AcDbLine
 10
252.9063287009
 20
78.4955250289
 30
0.0
 11
253.8445826438
 21
78.4403348532
 31
0.0
  0
LINE
  5
A4
330
1F
100
AcDbEntity
  8
0
  6
Continuous
 62
     7
370
    15
100
AcDbLine
 10
253.8445826438
 20
78.4403348532
 30
0.0
 11
253.8997737509
 21
78.8266735341
 31
0.0
  0
LINE
  5
A5
330
1F
100
AcDbEntity
  8
0
  6
Continuous
 62
     7
370
    15
100
AcDbLine
 10
253.8997737509
 20
78.8266735341
 30
0.0
 11
253.8445826438
 21
78.8818637099
 31
0.0
  0
LINE
  5
A6
330
1F
100
AcDbEntity
  8
0
  6
Continuous
 62
     7
370
    15
100
AcDbLine
 10
253.8445826438
 20
78.8818637099
 30
0.0
 11
254.5068791885
 21
79.2682023909
 31
0.0
  0
SPLINE
  5
A7
330
1F
100
AcDbEntity
  8
0
  6
Continuous
 62
     7
370
    15
100
AcDbSpline
210
0.0
220
0.0
230
1.0
 70
     8
 71
     3
 72
     8
 73
     4
 74
     0
 42
0.00000001
 43
0.00000001
 12
1.0
 22
0.0
 32
0.0
 13
1.0
 23
0.0
 33
0.0
 40
0.0
 40
0.0
 40
0.0
 40
0.0
 40
1.0
 40
1.0
 40
1.0
 40
1.0
 10
254.5068792458116
 20
79.26820408247791
 30
0.0
 10
255.646331278576
 20
79.17324974641426
 30
0.0
 10
255.8120330121163
 20
79.16407705793365
 30
0.0
 10
255.9970469635163
 20
78.05399334953339
 30
0.0
  0
SPLINE
  5
A8
330
1F
100
AcDbEntity
  8
0
  6
Continuous
 62
     7
370
    15
100
AcDbSpline
210
0.0
220
0.0
230
1.0
 70
     8
 71
     3
 72
    20
 73
    16
 74
     0
 42
0.00000001
 43
0.00000001
 12
1.0
 22
0.0
 32
0.0
 13
1.0
 23
0.0
 33
0.0
 40
0.0
 40
0.0
 40
0.0
 40
0.0
 40
1.0
 40
1.0
 40
1.0
 40
2.0
 40
2.0
 40
2.0
 40
3.0
 40
3.0
 40
3.0
 40
4.0
 40
4.0
 40
4.0
 40
5.0
 40
5.0
 40
5.0
 40
5.0
 10
255.9970469635163
 20
78.05399334953339
 30
0.0
 10
254.7173195776472
 20
77.91928520365242
 30
0.0
 10
252.3743278009297
 20
77.82130681545063
 30
0.0
 10
252.4647975585868
 20
76.01191166230848
 30
0.0
 10
252.4817318641595
 20
75.67322555085434
 30
0.0
 10
252.6015395464201
 20
75.29927575277489
 30
0.0
 10
252.7959459402989
 20
75.01846651717206
 30
0.0
 10
252.9736892287525
 20
74.76172621162804
 30
0.0
 10
253.4016601648034
 20
74.46683077604536
 30
0.0
 10
253.6790082915313
 20
74.41136115069976
 30
0.0
 10
253.8423662843049
 20
74.37868955214508
 30
0.0
 10
254.0123728713258
 20
74.3888413523025
 30
0.0
 10
254.1757308640996
 20
74.35616975374776
 30
0.0
 10
254.2012430963655
 20
74.35106730729456
 30
0.0
 10
254.2125251287342
 20
74.31937548911307
 30
0.0
 10
254.2309222610515
 20
74.30097835679574
 30
0.0
  0
SPLINE
  5
A9
330
1F
100
AcDbEntity
  8
0
  6
Continuous
 62
     7
370
    15
100
AcDbSpline
210
0.0
220
0.0
230
1.0
 70
     8
 71
     3
 72
    11
 73
     7
 74
     0
 42
0.00000001
 43
0.00000001
 12
1.0
 22
0.0
 32
0.0
 13
1.0
 23
0.0
 33
0.0
 40
0.0
 40
0.0
 40
0.0
 40
0.0
 40
1.0
 40
1.0
 40
1.0
 40
2.0
 40
2.0
 40
2.0
 40
2.0
 10
254.2309222610515
 20
74.30097835679574
 30
0.0
 10
254.5620706427636
 20
74.35616975374776
 30
0.0
 10
254.9034969462574
 20
74.3678231753655
 30
0.0
 10
255.224367406188
 20
74.4665525476518
 30
0.0
 10
255.526886976987
 20
74.5596354925131
 30
0.0
 10
255.7538924584877
 20
74.81583776298152
 30
0.0
 10
255.9970469635163
 20
75.01846651717206
 30
0.0
  0
SPLINE
  5
AA
330
1F
100
AcDbEntity
  8
0
  6
Continuous
 62
     7
370
    15
100
AcDbSpline
210
0.0
220
0.0
230
1.0
 70
     8
 71
     3
 72
     8
 73
     4
 74
     0
 42
0.00000001
 43
0.00000001
 12
1.0
 22
0.0
 32
0.0
 13
1.0
 23
0.0
 33
0.0
 40
0.0
 40
0.0
 40
0.0
 40
0.0
 40
1.0
 40
1.0
 40
1.0
 40
1.0
 10
255.9970469635163
 20
75.01846651717206
 30
0.0
 10
256.3095872609492
 20
74.2371157735898
 30
0.0
 10
256.5954933742682
 20
74.51012229116732
 30
0.0
 10
257.5975974751249
 20
74.4665525476518
 30
0.0
  0
LINE
  5
AB
330
1F
100
AcDbEntity
  8
0
  6
Continuous
 62
     7
370
    15
100
AcDbLine
 10
257.597597484
 20
74.4665527906
 30
0.0
 11
257.6527888239
 21
75.2944240537
 31
0.0
  0
LINE
  5
AC
330
1F
100
AcDbEntity
  8
0
  6
Continuous
 62
     7
370
    15
100
AcDbLine
 10
257.6527888239
 20
75.2944240537
 30
0.0
 11
257.0456836191
 21
75.3496142294
 31
0.0
  0
SPLINE
  5
AD
330
1F
100
AcDbEntity
  8
0
  6
Continuous
 62
     7
370
    15
100
AcDbSpline
210
0.0
220
0.0
230
1.0
 70
     8
 71
     3
 72
    20
 73
    16
 74
     0
 42
0.00000001
 43
0.00000001
 12
1.0
 22
0.0
 32
0.0
 13
1.0
 23
0.0
 33
0.0
 40
0.0
 40
0.0
 40
0.0
 40
0.0
 40
1.0
 40
1.0
 40
1.0
 40
2.0
 40
2.0
 40
2.0
 40
3.0
 40
3.0
 40
3.0
 40
4.0
 40
4.0
 40
4.0
 40
5.0
 40
5.0
 40
5.0
 40
5.0
 10
257.0456835056047
 20
75.34961489888423
 30
0.0
 10
257.0088892409701
 20
76.41664857329002
 30
0.0
 10
257.0135943372771
 20
77.48592261426198
 30
0.0
 10
256.9353007117007
 20
78.5507159221016
 30
0.0
 10
256.9122474813988
 20
78.86423985420754
 30
0.0
 10
256.789056063533
 20
79.17953563971041
 30
0.0
 10
256.6041523299886
 20
79.43377827333397
 30
0.0
 10
255.9840851276254
 20
80.28637067658332
 30
0.0
 10
254.7423966857659
 20
80.21014579369884
 30
0.0
 10
253.8445824823874
 20
79.98569224285423
 30
0.0
 10
253.6391464696724
 20
79.93433323967551
 30
0.0
 10
252.9903053485262
 20
79.69284522967534
 30
0.0
 10
252.961520131155
 20
79.43377827333397
 30
0.0
 10
252.9269228313739
 20
79.12240257530446
 30
0.0
 10
252.9247258665203
 20
78.80827577454438
 30
0.0
 10
252.9063287342029
 20
78.49552452514958
 30
0.0
  0
LINE
  5
AE
330
1F
100
AcDbEntity
  8
0
  6
Continuous
 62
     7
370
    15
100
AcDbLine
 10
245.5658732731
 20
82.0829646852
 30
0.0
 11
245.5658732731
 21
81.2550934222
 31
0.0
  0
LINE
  5
AF
330
1F
100
AcDbEntity
  8
0
  6
Continuous
 62
     7
370
    15
100
AcDbLine
 10
245.5658732731
 20
81.2550934222
 30
0.0
 11
246.1729782451
 21
81.1999032464
 31
0.0
  0
LINE
  5
B0
330
1F
100
AcDbEntity
  8
0
  6
Continuous
 62
     7
370
    15
100
AcDbLine
 10
246.1729782451
 20
81.1999032464
 30
0.0
 11
246.2281693522
 21
74.5217429664
 31
0.0
  0
LINE
  5
B1
330
1F
100
AcDbEntity
  8
0
  6
Continuous
 62
     7
370
    15
100
AcDbLine
 10
246.2281693522
 20
74.5217429664
 30
0.0
 11
247.1664237608
 21
74.4665527906
 31
0.0
  0
SPLINE
  5
B2
330
1F
100
AcDbEntity
  8
0
  6
Continuous
 62
     7
370
    15
100
AcDbSpline
210
0.0
220
0.0
230
1.0
 70
     8
 71
     3
 72
    20
 73
    16
 74
     0
 42
0.00000001
 43
0.00000001
 12
1.0
 22
0.0
 32
0.0
 13
1.0
 23
0.0
 33
0.0
 40
0.0
 40
0.0
 40
0.0
 40
0.0
 40
1.0
 40
1.0
 40
1.0
 40
2.0
 40
2.0
 40
2.0
 40
3.0
 40
3.0
 40
3.0
 40
4.0
 40
4.0
 40
4.0
 40
5.0
 40
5.0
 40
5.0
 40
5.0
 10
247.1664234511924
 20
74.4665525476518
 30
0.0
 10
247.1848205835098
 20
75.36801203120156
 30
0.0
 10
247.1888493335981
 20
76.26987934827437
 30
0.0
 10
247.2216148481444
 20
77.17093099830102
 30
0.0
 10
247.2370835775118
 20
77.59632105590111
 30
0.0
 10
247.3729690470977
 20
78.03266336167911
 30
0.0
 10
247.6079546268086
 20
78.38514173124554
 30
0.0
 10
248.0312916774737
 20
79.02014730724312
 30
0.0
 10
248.5880188097159
 20
79.19262458012653
 30
0.0
 10
249.3188879323214
 20
79.15782128857387
 30
0.0
 10
249.5397888992094
 20
79.14730219491253
 30
0.0
 10
249.8253671817303
 20
78.97273374403638
 30
0.0
 10
249.9259932987937
 20
78.7714815099097
 30
0.0
 10
250.5665092311136
 20
77.49044964526996
 30
0.0
 10
249.4742417006942
 20
75.71278764289146
 30
0.0
 10
250.3675244744099
 20
74.52174394460384
 30
0.0
  0
LINE
  5
B3
330
1F
100
AcDbEntity
  8
0
  6
Continuous
 62
     7
370
    15
100
AcDbLine
 10
250.367524736
 20
74.5217429664
 30
0.0
 11
251.6921178256
 21
74.4665527906
 31
0.0
  0
LINE
  5
B4
330
1F
100
AcDbEntity
  8
0
  6
Continuous
 62
     7
370
    15
100
AcDbLine
 10
251.6921178256
 20
74.4665527906
 30
0.0
 11
251.7473089327
 21
75.2944240537
 31
0.0
  0
LINE
  5
B5
330
1F
100
AcDbEntity
  8
0
  6
Continuous
 62
     7
370
    15
100
AcDbLine
 10
251.7473089327
 20
75.2944240537
 30
0.0
 11
251.1402039607
 21
75.3496142294
 31
0.0
  0
SPLINE
  5
B6
330
1F
100
AcDbEntity
  8
0
  6
Continuous
 62
     7
370
    15
100
AcDbSpline
210
0.0
220
0.0
230
1.0
 70
     8
 71
     3
 72
    17
 73
    13
 74
     0
 42
0.00000001
 43
0.00000001
 12
1.0
 22
0.0
 32
0.0
 13
1.0
 23
0.0
 33
0.0
 40
0.0
 40
0.0
 40
0.0
 40
0.0
 40
1.0
 40
1.0
 40
1.0
 40
2.0
 40
2.0
 40
2.0
 40
3.0
 40
3.0
 40
3.0
 40
4.0
 40
4.0
 40
4.0
 40
4.0
 10
251.1402040317381
 20
75.34961489888423
 30
0.0
 10
251.1218068994208
 20
76.2878686470686
 30
0.0
 10
251.1179198962634
 20
77.22651919133777
 30
0.0
 10
251.0850126347862
 20
78.16437614343742
 30
0.0
 10
251.0379891175961
 20
79.50454638335272
 30
0.0
 10
250.25044028795
 20
80.35352819886666
 30
0.0
 10
248.8773567567052
 20
80.09607503675826
 30
0.0
 10
248.5170748678152
 20
80.0285221825914
 30
0.0
 10
248.1514659339583
 20
79.93871281161472
 30
0.0
 10
247.8287202146167
 20
79.76492665504614
 30
0.0
 10
247.5890882810704
 20
79.63589407544423
 30
0.0
 10
247.4090959793313
 20
79.40049381671272
 30
0.0
 10
247.2216148481444
 20
79.21301268552591
 30
0.0
  0
SPLINE
  5
B7
330
1F
100
AcDbEntity
  8
0
  6
Continuous
 62
     7
370
    15
100
AcDbSpline
210
0.0
220
0.0
230
1.0
 70
     8
 71
     3
 72
    11
 73
     7
 74
     0
 42
0.00000001
 43
0.00000001
 12
1.0
 22
0.0
 32
0.0
 13
1.0
 23
0.0
 33
0.0
 40
0.0
 40
0.0
 40
0.0
 40
0.0
 40
1.0
 40
1.0
 40
1.0
 40
2.0
 40
2.0
 40
2.0
 40
2.0
 10
247.2216148481444
 20
79.21301268552591
 30
0.0
 10
247.2216148481444
 20
80.05948071733292
 30
0.0
 10
247.2599002077185
 20
80.91052613658483
 30
0.0
 10
247.1664234511924
 20
81.75181694531899
 30
0.0
 10
247.1097218732729
 20
82.26213114659451
 30
0.0
 10
246.1330174565903
 20
82.06027954635087
 30
0.0
 10
245.5658729395838
 20
82.08296532703116
 30
0.0
  0
ARC
  5
B8
330
1F
100
AcDbEntity
  8
0
  6
Continuous
 62
     7
370
    15
100
AcDbCircle
 10
264.4975159425
 20
97.8980511266
 30
0.0
 40
12.44957333178642
100
AcDbArc
 50
244.1768384556
 51
115.8231615423
  0
ARC
  5
B9
330
1F
100
AcDbEntity
  8
0
  6
Continuous
 62
     7
370
    15
100
AcDbCircle
 10
258.8201707953
 20
98.5429627943
 30
0.0
 40
10.56454444562013
100
AcDbArc
 50
88.6202989682
 51
131.4270082532
  0
ARC
  5
BA
330
1F
100
AcDbEntity
  8
0
  6
Continuous
 62
     7
370
    15
100
AcDbCircle
 10
254.5981584989
 20
97.9578246152
 30
0.0
 40
8.945507533455128
100
AcDbArc
 50
108.0260458223
 51
251.9739541777
  0
ARC
  5
BB
330
1F
100
AcDbEntity
  8
0
  6
Continuous
 62
     7
370
    15
100
AcDbCircle
 10
258.0947435772
 20
95.0082817542
 30
0.0
 40
8.374141252629213
100
AcDbArc
 50
221.5732065321
 51
276.7191730547
  0
ARC
  5
BC
330
1F
100
AcDbEntity
  8
0
  6
Continuous
 62
     7
370
    15
100
AcDbCircle
 10
260.9270723696
 20
50.2975088309
 30
0.0
 40
6.833433749918401
100
AcDbArc
 50
348.9061999375
 51
11.0938000625
  0
ARC
  5
BD
330
1F
100
AcDbEntity
  8
0
  6
Continuous
 62
     7
370
    15
100
AcDbCircle
 10
269.2546252374
 20
48.7629078412
 30
0.0
 40
1.636630839484354
100
AcDbArc
 50
172.2839408291
 51
352.2839408291
  0
ARC
  5
BE
330
1F
100
AcDbEntity
  8
0
  6
Continuous
 62
     7
370
    15
100
AcDbCircle
 10
260.9270723696
 20
50.2975088309
 30
0.0
 40
10.10285000000149
100
AcDbArc
 50
350.0
 51
10.0
  0
ARC
  5
BF
330
1F
100
AcDbEntity
  8
0
  6
Continuous
 62
     7
370
    15
100
AcDbCircle
 10
269.2546252374
 20
51.8321098206
 30
0.0
 40
1.636630839484289
100
AcDbArc
 50
7.716059171
 51
187.716059171
  0
ARC
  5
C0
330
1F
100
AcDbEntity
  8
0
  6
Continuous
 62
     7
370
    15
100
AcDbCircle
 10
260.9270723696
 20
50.2975088309
 30
0.0
 40
6.838950000000569
100
AcDbArc
 50
171.0811288398
 51
188.9188711602
  0
ARC
  5
C1
330
1F
100
AcDbEntity
  8
0
  6
Continuous
 62
     7
370
    15
100
AcDbCircle
 10
252.5869779219
 20
51.7855446929
 30
0.0
 40
1.640581390110859
100
AcDbArc
 50
344.8864313709
 51
164.8864313709
  0
ARC
  5
C2
330
1F
100
AcDbEntity
  8
0
  6
Continuous
 62
     7
370
    15
100
AcDbCircle
 10
260.9270723696
 20
50.2975088309
 30
0.0
 40
10.10715735202857
100
AcDbArc
 50
169.0736024024
 51
191.6717440617
  0
ARC
  5
C3
330
1F
100
AcDbEntity
  8
0
  6
Continuous
 62
     7
370
    15
100
AcDbCircle
 10
252.5998584304
 20
48.7450068804
 30
0.0
 40
1.646262167395609
100
AcDbArc
 50
197.3970999519
 51
17.3970999519
  0
LINE
  5
C4
330
1F
100
AcDbEntity
  8
0
  6
Continuous
 62
     7
370
    15
100
AcDbLine
 10
287.5718126823
 20
62.6064559635
 30
0.0
 11
281.4758128304
 21
62.6064559635
 31
0.0
  0
LINE
  5
C5
330
1F
100
AcDbEntity
  8
0
  6
Continuous
 62
     7
370
    15
100
AcDbLine
 10
281.4758128304
 20
62.6064559635
 30
0.0
 11
281.4758128304
 21
57.5264563974
 31
0.0
  0
LINE
  5
C6
330
1F
100
AcDbEntity
  8
0
  6
Continuous
 62
     7
370
    15
100
AcDbLine
 10
281.4758128304
 20
57.5264563974
 30
0.0
 11
287.5718126823
 21
57.5264563974
 31
0.0
  0
LINE
  5
C7
330
1F
100
AcDbEntity
  8
0
  6
Continuous
 62
     7
370
    15
100
AcDbLine
 10
287.5718126823
 20
57.5264563974
 30
0.0
 11
287.5718126823
 21
62.6064559635
 31
0.0
  0
LINE
  5
C8
330
1F
100
AcDbEntity
  8
0
  6
Continuous
 62
     7
370
    15
100
AcDbLine
 10
234.2318135132
 20
57.5264563974
 30
0.0
 11
240.327813365
 21
57.5264563974
 31
0.0
  0
LINE
  5
C9
330
1F
100
AcDbEntity
  8
0
  6
Continuous
 62
     7
370
    15
100
AcDbLine
 10
240.327813365
 20
57.5264563974
 30
0.0
 11
240.327813365
 21
62.6064559635
 31
0.0
  0
LINE
  5
CA
330
1F
100
AcDbEntity
  8
0
  6
Continuous
 62
     7
370
    15
100
AcDbLine
 10
240.327813365
 20
62.6064559635
 30
0.0
 11
234.2318135132
 21
62.6064559635
 31
0.0
  0
LINE
  5
CB
330
1F
100
AcDbEntity
  8
0
  6
Continuous
 62
     7
370
    15
100
AcDbLine
 10
234.2318135132
 20
62.6064559635
 30
0.0
 11
234.2318135132
 21
57.5264563974
 31
0.0
  0
ARC
  5
CC
330
1F
100
AcDbEntity
  8
0
  6
Continuous
 62
     7
370
    15
100
AcDbCircle
 10
299.7638130977
 20
130.6784562704
 30
0.0
 40
63.24600000000004
100
AcDbArc
 50
172.5986871775
 51
188.5526574136
  0
ARC
  5
CD
330
1F
100
AcDbEntity
  8
0
  6
Continuous
 62
     7
370
    15
100
AcDbCircle
 10
238.4410387914
 20
121.576713726
 30
0.0
 40
1.257235856949691
100
AcDbArc
 50
193.9972808661
 51
283.9972808661
  0
LINE
  5
CE
330
1F
100
AcDbEntity
  8
0
  6
Continuous
 62
     7
370
    15
100
AcDbLine
 10
238.7451330949
 20
120.3568058278
 30
0.0
 11
239.1824281592
 21
120.3488337066
 31
0.0
  0
ARC
  5
CF
330
1F
100
AcDbEntity
  8
0
  6
Continuous
 62
     7
370
    15
100
AcDbCircle
 10
238.969791515
 20
121.6009035278
 30
0.0
 40
1.269999999999995
100
AcDbArc
 50
279.6384559019
 51
8.4924639035
  0
ARC
  5
D0
330
1F
100
AcDbEntity
  8
0
  6
Continuous
 62
     7
370
    15
100
AcDbCircle
 10
299.7638130977
 20
130.6784562704
 30
0.0
 40
60.19800000000002
100
AcDbArc
 50
172.7278604451
 51
188.4924639035
  0
ARC
  5
D1
330
1F
100
AcDbEntity
  8
0
  6
Continuous
 62
     7
370
    15
100
AcDbCircle
 10
238.8147386022
 20
138.5932997176
 30
0.0
 40
1.269999999999995
100
AcDbArc
 50
346.5757151331
 51
75.4297231347
  0
LINE
  5
D2
330
1F
100
AcDbEntity
  8
0
  6
Continuous
 62
     7
370
    15
100
AcDbLine
 10
239.1342284907
 20
139.8224534657
 30
0.0
 11
238.5038851578
 21
139.8416983154
 31
0.0
  0
ARC
  5
D3
330
1F
100
AcDbEntity
  8
0
  6
Continuous
 62
     7
370
    15
100
AcDbCircle
 10
238.2925885428
 20
138.5894001399
 30
0.0
 40
1.270000000000019
100
AcDbArc
 50
80.4229005782
 51
169.2769085799
  0
CIRCLE
  5
D4
330
1F
100
AcDbEntity
  8
0
  6
Continuous
 62
     7
370
    15
100
AcDbCircle
 10
260.9018130977
 20
130.6784562704
 30
0.0
 40
9.144000000000005
  0
CIRCLE
  5
D5
330
1F
100
AcDbEntity
  8
0
  6
Continuous
 62
     7
370
    15
100
AcDbCircle
 10
260.9018130977
 20
50.1604562704
 30
0.0
 40
5.206999999999994
  0
CIRCLE
  5
D6
330
1F
100
AcDbEntity
  8
0
  6
Continuous
 62
     7
370
    15
100
AcDbCircle
 10
283.7618130977
 20
130.6784562704
 30
0.0
 40
1.777999999999963
  0
LINE
  5
D7
330
1F
100
AcDbEntity
  8
0
  6
Continuous
 62
     7
370
    15
100
AcDbLine
 10
240.5818129708
 20
31.3644564901
 30
0.0
 11
250.7418130342
 21
31.3644564901
 31
0.0
  0
LINE
  5
D8
330
1F
100
AcDbEntity
  8
0
  6
Continuous
 62
     7
370
    15
100
AcDbLine
 10
240.5818129708
 20
37.2064562704
 30
0.0
 11
240.5818129708
 21
31.3644564901
 31
0.0
  0
LINE
  5
D9
330
1F
100
AcDbEntity
  8
0
  6
Continuous
 62
     7
370
    15
100
AcDbLine
 10
220.2618128438
 20
37.2064562704
 30
0.0
 11
240.5818129708
 21
37.2064562704
 31
0.0
  0
ARC
  5
DA
330
1F
100
AcDbEntity
  8
0
  6
Continuous
 62
     7
370
    15
100
AcDbCircle
 10
230.4218130977
 20
37.2064562704
 30
0.0
 40
10.16
100
AcDbArc
 50
90.0
 51
180.0
  0
LINE
  5
DB
330
1F
100
AcDbEntity
  8
0
  6
Continuous
 62
     7
370
    15
100
AcDbLine
 10
230.4218138386
 20
140.2670594122
 30
0.0
 11
230.4218138386
 21
47.3664563339
 31
0.0
  0
ARC
  5
DC
330
1F
100
AcDbEntity
  8
0
  6
Continuous
 62
     7
370
    15
100
AcDbCircle
 10
232.193181033
 20
140.4204840762
 30
0.0
 40
1.778000000000001
100
AcDbArc
 50
129.569600405
 51
184.9502965842
  0
ARC
  5
DD
330
1F
100
AcDbEntity
  8
0
  6
Continuous
 62
     7
370
    15
100
AcDbCircle
 10
260.9657792811
 20
56.8559820764
 30
0.0
 40
90.04603671833581
100
AcDbArc
 50
70.6030912438
 51
109.3969087562
  0
ARC
  5
DE
330
1F
100
AcDbEntity
  8
0
  6
Continuous
 62
     7
370
    15
100
AcDbCircle
 10
289.6226249881
 20
140.5250135488
 30
0.0
 40
1.778000000000054
100
AcDbArc
 50
351.657972206
 51
45.4028404696
  0
LINE
  5
DF
330
1F
100
AcDbEntity
  8
0
  6
Continuous
 62
     7
370
    15
100
AcDbLine
 10
291.3818123568
 20
47.3664563339
 30
0.0
 11
291.3818123568
 21
140.2670594122
 31
0.0
  0
ARC
  5
E0
330
1F
100
AcDbEntity
  8
0
  6
Continuous
 62
     7
370
    15
100
AcDbCircle
 10
291.3818130977
 20
37.2064562704
 30
0.0
 40
10.16
100
AcDbArc
 50
0.0
 51
90.0
  0
LINE
  5
E1
330
1F
100
AcDbEntity
  8
0
  6
Continuous
 62
     7
370
    15
100
AcDbLine
 10
281.2218132247
 20
37.2064562704
 30
0.0
 11
301.5418133516
 21
37.2064562704
 31
0.0
  0
LINE
  5
E2
330
1F
100
AcDbEntity
  8
0
  6
Continuous
 62
     7
370
    15
100
AcDbLine
 10
281.2218132247
 20
31.3644564901
 30
0.0
 11
281.2218132247
 21
37.2064562704
 31
0.0
  0
LINE
  5
E3
330
1F
100
AcDbEntity
  8
0
  6
Continuous
 62
     7
370
    15
100
AcDbLine
 10
271.0618131612
 20
31.3644564901
 30
0.0
 11
281.2218132247
 21
31.3644564901
 31
0.0
  0
LINE
  5
E4
330
1F
100
AcDbEntity
  8
0
  6
Continuous
 62
     7
370
    15
100
AcDbLine
 10
271.0618131612
 20
37.2064562704
 30
0.0
 11
271.0618131612
 21
31.3644564901
 31
0.0
  0
LINE
  5
E5
330
1F
100
AcDbEntity
  8
0
  6
Continuous
 62
     7
370
    15
100
AcDbLine
 10
250.7418130342
 20
37.2064562704
 30
0.0
 11
271.0618131612
 21
37.2064562704
 31
0.0
  0
LINE
  5
E6
330
1F
100
AcDbEntity
  8
0
  6
Continuous
 62
     7
370
    15
100
AcDbLine
 10
250.7418130342
 20
31.3644564901
 30
0.0
 11
250.7418130342
 21
37.2064562704
 31
0.0
  0
LINE
  5
E7
330
1F
100
AcDbEntity
  8
0
  6
Continuous
 62
     7
370
    15
100
AcDbLine
 10
252.1293691177
 20
98.9254715111
 30
0.0
 11
248.851699457
 21
97.6077767279
 31
0.0
  0
ARC
  5
E8
330
1F
100
AcDbEntity
  8
0
  6
Continuous
 62
     7
370
    15
100
AcDbCircle
 10
259.8816448429
 20
97.9484516851
 30
0.0
 40
11.03520540044982
100
AcDbArc
 50
181.76909188
 51
184.9375432503
  0
LINE
  5
E9
330
1F
100
AcDbEntity
  8
0
  6
Continuous
 62
     7
370
    15
100
AcDbLine
 10
248.8873896007
 20
96.9986545112
 30
0.0
 11
252.091088966
 21
98.1712566879
 31
0.0
  0
ARC
  5
EA
330
1F
100
AcDbEntity
  8
0
  6
Continuous
 62
     7
370
    15
100
AcDbCircle
 10
254.4252659066
 20
98.43086455
 30
0.0
 40
2.34856957082755
100
AcDbArc
 50
167.8425095391
 51
186.3463845845
  0
LINE
  5
EB
330
1F
100
AcDbEntity
  8
0
  6
Continuous
 62
     7
370
    15
100
AcDbLine
 10
252.3597932239
 20
100.5024017956
 30
0.0
 11
248.9202829827
 21
99.2229284909
 31
0.0
  0
ARC
  5
EC
330
1F
100
AcDbEntity
  8
0
  6
Continuous
 62
     7
370
    15
100
AcDbCircle
 10
259.8816448427
 20
97.9484516851
 30
0.0
 40
11.03520540024853
100
AcDbArc
 50
173.3679946265
 51
177.4944705188
  0
LINE
  5
ED
330
1F
100
AcDbEntity
  8
0
  6
Continuous
 62
     7
370
    15
100
AcDbLine
 10
248.8569893692
 20
98.4308647182
 30
0.0
 11
252.2086768229
 21
99.6432045665
 31
0.0
  0
ARC
  5
EE
330
1F
100
AcDbEntity
  8
0
  6
Continuous
 62
     7
370
    15
100
AcDbCircle
 10
256.2621763327
 20
99.3731605597
 30
0.0
 40
4.06248482864596
100
AcDbArc
 50
163.8610112967
 51
176.1885868808
  0
ARC
  5
EF
330
1F
100
AcDbEntity
  8
0
  6
Continuous
 62
     7
370
    15
100
AcDbCircle
 10
254.7884973905
 20
97.963260068
 30
0.0
 40
8.58553570366545
100
AcDbArc
 50
110.156984385
 51
249.843015615
  0
ARC
  5
F0
330
1F
100
AcDbEntity
  8
0
  6
Continuous
 62
     7
370
    15
100
AcDbCircle
 10
259.6943031787
 20
97.963260068
 30
0.0
 40
11.26082599534161
100
AcDbArc
 50
134.2971045434
 51
225.7028954566
  0
LINE
  5
F1
330
1F
100
AcDbEntity
  8
0
  6
Continuous
 62
     7
370
    15
100
AcDbLine
 10
250.9261078019
 20
91.5006512966
 30
0.0
 11
253.316176292
 21
92.4236105945
 31
0.0
  0
ARC
  5
F2
330
1F
100
AcDbEntity
  8
0
  6
Continuous
 62
     7
370
    15
100
AcDbCircle
 10
256.2508036597
 20
94.1918918633
 30
0.0
 40
3.426202401633336
100
AcDbArc
 50
197.3279088534
 51
211.0713953247
  0
LINE
  5
F3
330
1F
100
AcDbEntity
  8
0
  6
Continuous
 62
     7
370
    15
100
AcDbLine
 10
252.9800968994
 20
93.1714328196
 30
0.0
 11
250.4255200554
 21
92.2600889768
 31
0.0
  0
ARC
  5
F4
330
1F
100
AcDbEntity
  8
0
  6
Continuous
 62
     7
370
    15
100
AcDbCircle
 10
259.8816448429
 20
97.9484516851
 30
0.0
 40
11.03520540036003
100
AcDbArc
 50
211.0291472811
 51
215.7531012893
  0
LINE
  5
F5
330
1F
100
AcDbEntity
  8
0
  6
Continuous
 62
     7
370
    15
100
AcDbLine
 10
250.1082249735
 20
92.8243885007
 30
0.0
 11
252.7150471513
 21
93.8774423864
 31
0.0
  0
ARC
  5
F6
330
1F
100
AcDbEntity
  8
0
  6
Continuous
 62
     7
370
    15
100
AcDbCircle
 10
255.1403955293
 20
95.0020936115
 30
0.0
 40
2.67341690572865
100
AcDbArc
 50
189.5162880211
 51
204.8775082563
  0
LINE
  5
F7
330
1F
100
AcDbEntity
  8
0
  6
Continuous
 62
     7
370
    15
100
AcDbLine
 10
252.5037682433
 20
94.5601018336
 30
0.0
 11
249.7893308107
 21
93.4851618674
 31
0.0
  0
ARC
  5
F8
330
1F
100
AcDbEntity
  8
0
  6
Continuous
 62
     7
370
    15
100
AcDbCircle
 10
259.8816448429
 20
97.9484516851
 30
0.0
 40
11.03520540037792
100
AcDbArc
 50
203.8572349814
 51
207.667378022
  0
LINE
  5
F9
330
1F
100
AcDbEntity
  8
0
  6
Continuous
 62
     7
370
    15
100
AcDbLine
 10
251.9442762066
 20
90.2820343342
 30
0.0
 11
254.1190787968
 21
91.0220110979
 31
0.0
  0
ARC
  5
FA
330
1F
100
AcDbEntity
  8
0
  6
Continuous
 62
     7
370
    15
100
AcDbCircle
 10
256.2843202806
 20
92.9123222468
 30
0.0
 40
2.874290265487424
100
AcDbArc
 50
201.3969789804
 51
221.121776045
  0
LINE
  5
FB
330
1F
100
AcDbEntity
  8
0
  6
Continuous
 62
     7
370
    15
100
AcDbLine
 10
253.6081403312
 20
91.8637031879
 30
0.0
 11
251.2909413133
 21
91.0220110979
 31
0.0
  0
ARC
  5
FC
330
1F
100
AcDbEntity
  8
0
  6
Continuous
 62
     7
370
    15
100
AcDbCircle
 10
259.8816448429
 20
97.9484516851
 30
0.0
 40
11.03520540036353
100
AcDbArc
 50
218.8782437258
 51
224.005186377
  0
LINE
  5
FD
330
1F
100
AcDbEntity
  8
0
  6
Continuous
 62
     7
370
    15
100
AcDbLine
 10
249.1088059549
 20
95.5564418998
 30
0.0
 11
252.1077223871
 21
96.6794902649
 31
0.0
  0
ARC
  5
FE
330
1F
100
AcDbEntity
  8
0
  6
Continuous
 62
     7
370
    15
100
AcDbCircle
 10
257.1785226612
 20
97.1024093646
 30
0.0
 40
5.088406069500226
100
AcDbArc
 50
176.5975573274
 51
184.767608093
  0
LINE
  5
FF
330
1F
100
AcDbEntity
  8
0
  6
Continuous
 62
     7
370
    15
100
AcDbLine
 10
252.0990862329
 20
97.4044019546
 30
0.0
 11
248.9814969529
 21
96.2272474732
 31
0.0
  0
ARC
  5
100
330
1F
100
AcDbEntity
  8
0
  6
Continuous
 62
     7
370
    15
100
AcDbCircle
 10
259.881644844
 20
97.9484516853
 30
0.0
 40
11.03520540150505
100
AcDbArc
 50
188.9732774575
 51
192.5188964096
  0
LINE
  5
101
330
1F
100
AcDbEntity
  8
0
  6
Continuous
 62
     7
370
    15
100
AcDbLine
 10
253.7784564127
 20
107.2334947254
 30
0.0
 11
257.6527888239
 21
108.1526803043
 31
0.0
  0
ARC
  5
102
330
1F
100
AcDbEntity
  8
0
  6
Continuous
 62
     7
370
    15
100
AcDbCircle
 10
256.4527574286
 20
104.5861099151
 30
0.0
 40
3.763047320219354
100
AcDbArc
 50
71.4036552396
 51
135.2898096341
  0
LINE
  5
103
330
1F
100
AcDbEntity
  8
0
  6
Continuous
 62
     7
370
    15
100
AcDbLine
 10
254.9539228719
 20
87.8439361419
 30
0.0
 11
256.4460743968
 21
88.4565452304
 31
0.0
  0
ARC
  5
104
330
1F
100
AcDbEntity
  8
0
  6
Continuous
 62
     7
370
    15
100
AcDbCircle
 10
260.0626940967
 20
93.4851626211
 30
0.0
 40
6.194105027218416
100
AcDbArc
 50
226.3128060868
 51
234.2760310971
  0
LINE
  5
105
330
1F
100
AcDbEntity
  8
0
  6
Continuous
 62
     7
370
    15
100
AcDbLine
 10
255.7842970644
 20
89.0060702529
 30
0.0
 11
254.1232851152
 21
88.2795008089
 31
0.0
  0
ARC
  5
106
330
1F
100
AcDbEntity
  8
0
  6
Continuous
 62
     7
370
    15
100
AcDbCircle
 10
258.0826691393
 20
94.8203341403
 30
0.0
 40
7.645861446145916
100
AcDbArc
 50
238.8120792736
 51
245.8449193825
  0
LINE
  5
107
330
1F
100
AcDbEntity
  8
0
  6
Continuous
 62
     7
370
    15
100
AcDbLine
 10
251.9630404938
 20
105.6343989637
 30
0.0
 11
255.5381419886
 21
106.4853223231
 31
0.0
  0
ARC
  5
108
330
1F
100
AcDbEntity
  8
0
  6
Continuous
 62
     7
370
    15
100
AcDbCircle
 10
259.4632886204
 20
103.4039861542
 30
0.0
 40
4.990130456910499
100
AcDbArc
 50
129.8775698145
 51
141.8672322861
  0
LINE
  5
109
330
1F
100
AcDbEntity
  8
0
  6
Continuous
 62
     7
370
    15
100
AcDbLine
 10
256.2638699826
 20
107.2334947254
 30
0.0
 11
252.8504223381
 21
106.446489897
 31
0.0
  0
ARC
  5
10A
330
1F
100
AcDbEntity
  8
0
  6
Continuous
 62
     7
370
    15
100
AcDbCircle
 10
258.8628104542
 20
98.9858507089
 30
0.0
 40
9.581752702494367
100
AcDbArc
 50
128.8646740385
 51
136.0623024735
  0
LINE
  5
10B
330
1F
100
AcDbEntity
  8
0
  6
Continuous
 62
     7
370
    15
100
AcDbLine
 10
254.6770774577
 20
105.5170895722
 30
0.0
 11
251.1781199653
 21
104.7325806882
 31
0.0
  0
ARC
  5
10C
330
1F
100
AcDbEntity
  8
0
  6
Continuous
 62
     7
370
    15
100
AcDbCircle
 10
259.8816448429
 20
97.9484516851
 30
0.0
 40
11.03520540035811
100
AcDbArc
 50
142.064679172
 51
148.9708527189
  0
LINE
  5
10D
330
1F
100
AcDbEntity
  8
0
  6
Continuous
 62
     7
370
    15
100
AcDbLine
 10
250.4255200554
 20
103.6368163492
 30
0.0
 11
254.1070158411
 21
104.7135146525
 31
0.0
  0
ARC
  5
10E
330
1F
100
AcDbEntity
  8
0
  6
Continuous
 62
     7
370
    15
100
AcDbCircle
 10
257.1554029868
 20
103.1549458382
 30
0.0
 40
3.423712702059753
100
AcDbArc
 50
136.3749883312
 51
152.9203633719
  0
LINE
  5
10F
330
1F
100
AcDbEntity
  8
0
  6
Continuous
 62
     7
370
    15
100
AcDbLine
 10
253.5200684149
 20
103.7137361433
 30
0.0
 11
249.841646925
 21
102.5282146599
 31
0.0
  0
ARC
  5
110
330
1F
100
AcDbEntity
  8
0
  6
Continuous
 62
     7
370
    15
100
AcDbCircle
 10
259.8816448428
 20
97.9484516851
 30
0.0
 40
11.03520540034087
100
AcDbArc
 50
155.4798292238
 51
159.0979015202
  0
LINE
  5
111
330
1F
100
AcDbEntity
  8
0
  6
Continuous
 62
     7
370
    15
100
AcDbLine
 10
249.5726511632
 20
101.8855052259
 30
0.0
 11
253.1850991589
 21
103.0265765455
 31
0.0
  0
ARC
  5
112
330
1F
100
AcDbEntity
  8
0
  6
Continuous
 62
     7
370
    15
100
AcDbCircle
 10
255.978426303
 20
102.0901438882
 30
0.0
 40
2.946113166667071
100
AcDbArc
 50
146.5576925605
 51
161.4668161135
  0
LINE
  5
113
330
1F
100
AcDbEntity
  8
0
  6
Continuous
 62
     7
370
    15
100
AcDbLine
 10
253.2995512527
 20
88.8891818192
 30
0.0
 11
255.1690388289
 21
89.7069426443
 31
0.0
  0
ARC
  5
114
330
1F
100
AcDbEntity
  8
0
  6
Continuous
 62
     7
370
    15
100
AcDbCircle
 10
257.0693454015
 20
92.0019056981
 30
0.0
 40
2.979600589854647
100
AcDbArc
 50
212.8509899703
 51
230.3741012662
  0
LINE
  5
115
330
1F
100
AcDbEntity
  8
0
  6
Continuous
 62
     7
370
    15
100
AcDbLine
 10
254.5662300479
 20
90.385604855
 30
0.0
 11
252.592091151
 21
89.5415993597
 31
0.0
  0
ARC
  5
116
330
1F
100
AcDbEntity
  8
0
  6
Continuous
 62
     7
370
    15
100
AcDbCircle
 10
258.1189117916
 20
94.8249165269
 30
0.0
 40
7.645861446145177
100
AcDbArc
 50
223.7096139569
 51
230.9260589366
  0
LINE
  5
117
330
1F
100
AcDbEntity
  8
0
  6
Continuous
 62
     7
370
    15
100
AcDbLine
 10
252.8895350922
 20
102.3111419942
 30
0.0
 11
249.2917810385
 21
101.0517629053
 31
0.0
  0
ARC
  5
118
330
1F
100
AcDbEntity
  8
0
  6
Continuous
 62
     7
370
    15
100
AcDbCircle
 10
259.8816448429
 20
97.9484516851
 30
0.0
 40
11.03520540035947
100
AcDbArc
 50
163.6670139073
 51
168.8244557173
  0
LINE
  5
119
330
1F
100
AcDbEntity
  8
0
  6
Continuous
 62
     7
370
    15
100
AcDbLine
 10
249.0556889032
 20
100.0872479942
 30
0.0
 11
252.5642948974
 21
101.3264583614
 31
0.0
  0
ARC
  5
11A
330
1F
100
AcDbEntity
  8
0
  6
Continuous
 62
     7
370
    15
100
AcDbCircle
 10
256.4367154176
 20
100.5934597645
 30
0.0
 40
3.941183797595623
100
AcDbArc
 50
154.1619104286
 51
169.2814277415
  0
LINE
  5
11B
330
1F
100
AcDbEntity
  8
0
  6
Continuous
 62
     7
370
    15
100
AcDbLine
 10
252.1991736073
 20
95.9634559419
 30
0.0
 11
249.2917810385
 21
94.8451386955
 31
0.0
  0
ARC
  5
11C
330
1F
100
AcDbEntity
  8
0
  6
Continuous
 62
     7
370
    15
100
AcDbCircle
 10
259.8816448429
 20
97.9484516851
 30
0.0
 40
11.03520540037578
100
AcDbArc
 50
196.3329861007
 51
199.9022174138
  0
LINE
  5
11D
330
1F
100
AcDbEntity
  8
0
  6
Continuous
 62
     7
370
    15
100
AcDbLine
 10
249.5055177067
 20
94.1918904152
 30
0.0
 11
252.3281254624
 21
95.2716844346
 31
0.0
  0
ARC
  5
11E
330
1F
100
AcDbEntity
  8
0
  6
Continuous
 62
     7
370
    15
100
AcDbCircle
 10
253.7784561824
 20
95.8999409351
 30
0.0
 40
1.580559136504163
100
AcDbArc
 50
177.6969159281
 51
203.4214008536
  0
LINE
  5
11F
330
1F
100
AcDbEntity
  8
0
  6
Continuous
 62
     7
370
    15
100
AcDbLine
 10
254.5068791885
 20
75.1840399768
 30
0.0
 11
254.5620707613
 21
75.2392338779
 31
0.0
  0
ARC
  5
120
330
1F
100
AcDbEntity
  8
0
  6
Continuous
 62
     7
370
    15
100
AcDbCircle
 10
254.2187485095
 20
76.9225929798
 30
0.0
 40
1.78364150979306
100
AcDbArc
 50
282.9103926724
 51
4.4359554234
  0
SPLINE
  5
121
330
1F
100
AcDbEntity
  8
0
  6
Continuous
 62
     7
370
    15
100
AcDbSpline
210
0.0
220
0.0
230
1.0
 70
     8
 71
     3
 72
    14
 73
    10
 74
     0
 42
0.00000001
 43
0.00000001
 12
1.0
 22
0.0
 32
0.0
 13
1.0
 23
0.0
 33
0.0
 40
0.0
 40
0.0
 40
0.0
 40
0.0
 40
1.0
 40
1.0
 40
1.0
 40
2.0
 40
2.0
 40
2.0
 40
3.0
 40
3.0
 40
3.0
 40
3.0
 10
255.9970469635163
 20
77.06054820439695
 30
0.0
 10
255.2725237696267
 20
77.09504930886787
 30
0.0
 10
254.0980614591598
 20
77.2366086819839
 30
0.0
 10
253.5686254976272
 20
76.5086342348767
 30
0.0
 10
253.5134506771576
 20
76.43276885673097
 30
0.0
 10
253.5430985851897
 20
76.32167070365975
 30
0.0
 10
253.5134341006752
 20
76.23267725011658
 30
0.0
 10
253.5052066529847
 20
76.20799490704499
 30
0.0
 10
253.4766398360405
 20
76.1958829854819
 30
0.0
 10
253.4582427037232
 20
76.17748585316455
 30
0.0
  0
SPLINE
  5
122
330
1F
100
AcDbEntity
  8
0
  6
Continuous
 62
     7
370
    15
100
AcDbSpline
210
0.0
220
0.0
230
1.0
 70
     8
 71
     3
 72
    14
 73
    10
 74
     0
 42
0.00000001
 43
0.00000001
 12
1.0
 22
0.0
 32
0.0
 13
1.0
 23
0.0
 33
0.0
 40
0.0
 40
0.0
 40
0.0
 40
0.0
 40
1.0
 40
1.0
 40
1.0
 40
2.0
 40
2.0
 40
2.0
 40
3.0
 40
3.0
 40
3.0
 40
3.0
 10
253.4582427037232
 20
76.17748585316455
 30
0.0
 10
253.5157504013425
 20
75.88994736506837
 30
0.0
 10
253.52402568518
 20
75.72271519691739
 30
0.0
 10
253.7341996884834
 20
75.45999769278824
 30
0.0
 10
253.8818870817968
 20
75.27538845114637
 30
0.0
 10
254.287067338816
 20
75.27581444054542
 30
0.0
 10
254.4516878488596
 20
75.23923210498015
 30
0.0
 10
254.4770857703483
 20
75.23358812242711
 30
0.0
 10
254.4884821134944
 20
75.2024378403455
 30
0.0
 10
254.5068792458116
 20
75.18404070802814
 30
0.0
  0
LINE
  5
123
330
1F
100
AcDbEntity
  8
0
  6
Continuous
 62
     7
370
    15
100
AcDbLine
 10
254.5620707613
 20
75.2392338779
 30
0.0
 11
254.6172618684
 21
75.1840399768
 31
0.0
  0
SPLINE
  5
124
330
1F
100
AcDbEntity
  8
0
  6
Continuous
 62
     7
370
    15
100
AcDbSpline
210
0.0
220
0.0
230
1.0
 70
     8
 71
     3
 72
    11
 73
     7
 74
     0
 42
0.00000001
 43
0.00000001
 12
1.0
 22
0.0
 32
0.0
 13
1.0
 23
0.0
 33
0.0
 40
3.0
 40
3.0
 40
3.0
 40
3.0
 40
4.0
 40
4.0
 40
4.0
 40
5.0
 40
5.0
 40
5.0
 40
5.0
 10
261.0194640861505
 20
79.21301268552591
 30
0.0
 10
260.7455208719622
 20
79.1034353998506
 30
0.0
 10
260.3950550469231
 20
79.00037616434436
 30
0.0
 10
260.1915931318701
 20
78.7714815099097
 30
0.0
 10
259.3253844214582
 20
77.79699671069638
 30
0.0
 10
259.6094871191362
 20
75.15340354946316
 30
0.0
 10
261.2402296739586
 20
75.23923210498015
 30
0.0
  0
SPLINE
  5
125
330
1F
100
AcDbEntity
  8
0
  6
Continuous
 62
     7
370
    15
100
AcDbSpline
210
0.0
220
0.0
230
1.0
 70
     8
 71
     3
 72
    14
 73
    10
 74
     0
 42
0.00000001
 43
0.00000001
 12
1.0
 22
0.0
 32
0.0
 13
1.0
 23
0.0
 33
0.0
 40
0.0
 40
0.0
 40
0.0
 40
0.0
 40
1.0
 40
1.0
 40
1.0
 40
2.0
 40
2.0
 40
2.0
 40
3.0
 40
3.0
 40
3.0
 40
3.0
 10
261.2402296739586
 20
75.23923210498015
 30
0.0
 10
263.1306710888203
 20
75.33872902155181
 30
0.0
 10
263.1235821663856
 20
77.88157416261906
 30
0.0
 10
262.0681006282389
 20
78.93705570076578
 30
0.0
 10
261.9911268383387
 20
79.01402949066595
 30
0.0
 10
261.8273913666013
 20
79.14490141427751
 30
0.0
 10
261.7369522465268
 20
79.15782128857387
 30
0.0
 10
261.4994937955258
 20
79.19174392443115
 30
0.0
 10
261.2586268062759
 20
79.19461555320855
 30
0.0
 10
261.0194640861505
 20
79.21301268552591
 30
0.0
  0
SPLINE
  5
126
330
1F
100
AcDbEntity
  8
0
  6
Continuous
 62
     7
370
    15
100
AcDbSpline
210
0.0
220
0.0
230
1.0
 70
     8
 71
     3
 72
    19
 73
    15
 74
     0
 42
0.00000001
 43
0.00000001
 12
1.0
 22
0.0
 32
0.0
 13
1.0
 23
0.0
 33
0.0
 40
0.0
 40
0.0
 40
0.0
 40
0.0
 40
0.1108026438013204
 40
0.2128292023477702
 40
0.3061013098231135
 40
0.3906473211160109
 40
0.4669244693608525
 40
0.53448103928403
 40
0.5935869409656727
 40
0.6445570045087173
 40
0.7362004526293732
 40
0.8250240256188649
 40
0.9119855848297584
 40
1.0
 40
1.0
 40
1.0
 40
1.0
 10
68.75975672917157
 20
89.47056456458665
 30
0.0
 10
68.77974283214584
 20
89.49142782616605
 30
0.0
 10
68.81813204568918
 20
89.5315018818743
 30
0.0
 10
68.87242912785474
 20
89.59000833871725
 30
0.0
 10
68.92119651602465
 20
89.64428544193402
 30
0.0
 10
68.96474989165331
 20
89.69423064027902
 30
0.0
 10
69.00214444013645
 20
89.74057449318393
 30
0.0
 10
69.03532907564772
 20
89.78181605202033
 30
0.0
 10
69.06191779019402
 20
89.81976755292082
 30
0.0
 10
69.09077424377658
 20
89.86375830514412
 30
0.0
 10
69.11872269919358
 20
89.91746861124462
 30
0.0
 10
69.14273921927516
 20
89.98310565189297
 30
0.0
 10
69.15738343714648
 20
90.05067403803511
 30
0.0
 10
69.159140171
 20
90.09633479377321
 30
0.0
 10
69.16002382318867
 20
90.11930254535588
 30
0.0
  0
LINE
  5
127
330
1F
100
AcDbEntity
  8
0
  6
Continuous
 62
     7
370
    15
100
AcDbLine
 10
67.938869977
 20
88.5945562847
 30
0.0
 11
68.7597567292
 21
89.4705645646
 31
0.0
  0
LINE
  5
128
330
1F
100
AcDbEntity
  8
0
  6
Continuous
 62
     7
370
    15
100
AcDbLine
 10
69.3771178403
 20
88.5945562847
 30
0.0
 11
67.938869977
 21
88.5945562847
 31
0.0
  0
LINE
  5
129
330
1F
100
AcDbEntity
  8
0
  6
Continuous
 62
     7
370
    15
100
AcDbLine
 10
69.3771178403
 20
88.8116503018
 30
0.0
 11
69.3771178403
 21
88.5945562847
 31
0.0
  0
LINE
  5
12A
330
1F
100
AcDbEntity
  8
0
  6
Continuous
 62
     7
370
    15
100
AcDbLine
 10
68.3921385401
 20
88.8116503018
 30
0.0
 11
69.3771178403
 21
88.8116503018
 31
0.0
  0
LINE
  5
12B
330
1F
100
AcDbEntity
  8
0
  6
Continuous
 62
     7
370
    15
100
AcDbLine
 10
68.9217292185
 20
89.3768579674
 30
0.0
 11
68.3921385401
 21
88.8116503018
 31
0.0
  0
SPLINE
  5
12C
330
1F
100
AcDbEntity
  8
0
  6
Continuous
 62
     7
370
    15
100
AcDbSpline
210
0.0
220
0.0
230
1.0
 70
     8
 71
     3
 72
    19
 73
    15
 74
     0
 42
0.00000001
 43
0.00000001
 12
1.0
 22
0.0
 32
0.0
 13
1.0
 23
0.0
 33
0.0
 40
0.0
 40
0.0
 40
0.0
 40
0.0
 40
0.0987021963061521
 40
0.1956723088106635
 40
0.2924224265079537
 40
0.3913425437998239
 40
0.4444624406718908
 40
0.5042287754493154
 40
0.5703523379946777
 40
0.6425457530977482
 40
0.7222875053440185
 40
0.8079211226827108
 40
0.9004695379850135
 40
1.0
 40
1.0
 40
1.0
 40
1.0
 10
69.34998108814594
 20
90.13626301544136
 30
0.0
 10
69.34895706727559
 20
90.10678218215088
 30
0.0
 10
69.34692699565136
 20
90.04833786245489
 30
0.0
 10
69.3295616345844
 20
89.96245268355419
 30
0.0
 10
69.30244017311237
 20
89.87924142534462
 30
0.0
 10
69.26978462873204
 20
89.81227172360784
 30
0.0
 10
69.2368417697043
 20
89.75830670595478
 30
0.0
 10
69.20715551511194
 20
89.71387563202713
 30
0.0
 10
69.17240298654161
 20
89.66603565828687
 30
0.0
 10
69.13207837110701
 20
89.61494698282739
 30
0.0
 10
69.08701582461585
 20
89.56020943545825
 30
0.0
 10
69.03680718296685
 20
89.50185608300302
 30
0.0
 10
68.98109441050629
 20
89.4404898222071
 30
0.0
 10
68.94199141243104
 20
89.39857643470111
 30
0.0
 10
68.92172921848783
 20
89.37685796736444
 30
0.0
  0
SPLINE
  5
12D
330
1F
100
AcDbEntity
  8
0
  6
Continuous
 62
     7
370
    15
100
AcDbSpline
210
0.0
220
0.0
230
1.0
 70
     8
 71
     3
 72
    23
 73
    19
 74
     0
 42
0.00000001
 43
0.00000001
 12
1.0
 22
0.0
 32
0.0
 13
1.0
 23
0.0
 33
0.0
 40
0.0
 40
0.0
 40
0.0
 40
0.0
 40
0.06947546024967
 40
0.1365167976178013
 40
0.2007888236092627
 40
0.2638296728558268
 40
0.3257350229654202
 40
0.3872906922152907
 40
0.4495092187626042
 40
0.5129678195454423
 40
0.5762752154930617
 40
0.6375801002639241
 40
0.6979026059171023
 40
0.7571720884269855
 40
0.816598528488656
 40
0.8766531708928199
 40
0.9372896424102402
 40
1.0
 40
1.0
 40
1.0
 40
1.0
 10
68.71057136592373
 20
90.7654964556123
 30
0.0
 10
68.73378096310987
 20
90.764953103381
 30
0.0
 10
68.77938699249732
 20
90.76388543565595
 30
0.0
 10
68.84594830599977
 20
90.75471662271813
 30
0.0
 10
68.90931362217526
 20
90.74035619349108
 30
0.0
 10
68.96935908097657
 20
90.72020829886351
 30
0.0
 10
69.02560560574112
 20
90.69312438324995
 30
0.0
 10
69.0784757326871
 20
90.66058968129953
 30
0.0
 10
69.12859888968927
 20
90.62296149756494
 30
0.0
 10
69.17371823025472
 20
90.57866038181282
 30
0.0
 10
69.21514930674522
 20
90.5313665588236
 30
0.0
 10
69.25089209914199
 20
90.48087625521053
 30
0.0
 10
69.28150101229014
 20
90.42872806813526
 30
0.0
 10
69.30701451393257
 20
90.37452434622645
 30
0.0
 10
69.32579608367195
 20
90.31775472428164
 30
0.0
 10
69.34005528567067
 20
90.25924570164096
 30
0.0
 10
69.34811519775825
 20
90.19839164927033
 30
0.0
 10
69.34935219196883
 20
90.15720339895003
 30
0.0
 10
69.34998108814594
 20
90.13626301544136
 30
0.0
  0
SPLINE
  5
12E
330
1F
100
AcDbEntity
  8
0
  6
Continuous
 62
     7
370
    15
100
AcDbSpline
210
0.0
220
0.0
230
1.0
 70
     8
 71
     3
 72
    23
 73
    19
 74
     0
 42
0.00000001
 43
0.00000001
 12
1.0
 22
0.0
 32
0.0
 13
1.0
 23
0.0
 33
0.0
 40
0.0
 40
0.0
 40
0.0
 40
0.0
 40
0.0687907943906181
 40
0.1351032894311284
 40
0.1989786743106521
 40
0.2619042997808564
 40
0.3234949693679707
 40
0.3851953779660511
 40
0.4469692387407752
 40
0.5097647767031324
 40
0.5722505688473697
 40
0.633405175661153
 40
0.6932511629217546
 40
0.7525831627856722
 40
0.8125792661534235
 40
0.8732750849201919
 40
0.9355499428950306
 40
1.0
 40
1.0
 40
1.0
 40
1.0
 10
68.02028023344508
 20
90.05994090005674
 30
0.0
 10
68.0215182735975
 20
90.08514186551632
 30
0.0
 10
68.02394975150847
 20
90.13463589099732
 30
0.0
 10
68.0353363835858
 20
90.20679844391486
 30
0.0
 10
68.05162919980017
 20
90.27577444123897
 30
0.0
 10
68.07466546008534
 20
90.34101005587775
 30
0.0
 10
68.10327449473657
 20
90.40308209644085
 30
0.0
 10
68.13758265415264
 20
90.46174401069224
 30
0.0
 10
68.17821893517743
 20
90.51677201529584
 30
0.0
 10
68.2243058648144
 20
90.56765598243167
 30
0.0
 10
68.27436118462386
 20
90.61433608477222
 30
0.0
 10
68.32837001468492
 20
90.65464663637404
 30
0.0
 10
68.38512391213901
 20
90.68870541857866
 30
0.0
 10
68.44445069151334
 20
90.71717836006262
 30
0.0
 10
68.50701969899927
 20
90.73855055259672
 30
0.0
 10
68.57226314159743
 20
90.75440840130996
 30
0.0
 10
68.6404676669498
 20
90.76394933419874
 30
0.0
 10
68.68693758504483
 20
90.76497488073085
 30
0.0
 10
68.71057136592373
 20
90.7654964556123
 30
0.0
  0
LINE
  5
12F
330
1F
100
AcDbEntity
  8
0
  6
Continuous
 62
     7
370
    15
100
AcDbLine
 10
68.2102374984
 20
90.0599409001
 30
0.0
 11
68.0202802334
 21
90.0599409001
 31
0.0
  0
SPLINE
  5
130
330
1F
100
AcDbEntity
  8
0
  6
Continuous
 62
     7
370
    15
100
AcDbSpline
210
0.0
220
0.0
230
1.0
 70
     8
 71
     3
 72
    23
 73
    19
 74
     0
 42
0.00000001
 43
0.00000001
 12
1.0
 22
0.0
 32
0.0
 13
1.0
 23
0.0
 33
0.0
 40
0.0
 40
0.0
 40
0.0
 40
0.0
 40
0.0644386715952416
 40
0.1265469112716778
 40
0.1868871534365703
 40
0.2458775355894534
 40
0.3040408846912651
 40
0.3621912180726584
 40
0.4209759327916436
 40
0.4806602832796653
 40
0.5406002749537565
 40
0.6006890983494519
 40
0.6619357897571947
 40
0.7244425059139816
 40
0.7890383938817426
 40
0.8563137570509932
 40
0.9263520282058628
 40
1.0
 40
1.0
 40
1.0
 40
1.0
 10
68.70081909562457
 20
90.54840243851828
 30
0.0
 10
68.68426625867194
 20
90.54797001424437
 30
0.0
 10
68.65175922000583
 20
90.54712080436983
 30
0.0
 10
68.60403199532516
 20
90.54118043138418
 30
0.0
 10
68.55850202510834
 20
90.53093223266795
 30
0.0
 10
68.5150547790368
 20
90.5169158629196
 30
0.0
 10
68.47361674380723
 20
90.49910045482228
 30
0.0
 10
68.43438944098465
 20
90.47691068542133
 30
0.0
 10
68.39746093176555
 20
90.45043209670526
 30
0.0
 10
68.3627617962185
 20
90.42041137930929
 30
0.0
 10
68.33079167554676
 20
90.38698763952632
 30
0.0
 10
68.30270237442842
 20
90.34972828090964
 30
0.0
 10
68.27815870873206
 20
90.3093136058995
 30
0.0
 10
68.25674455324665
 20
90.26585266341233
 30
0.0
 10
68.23935420733946
 20
90.21895109170741
 30
0.0
 10
68.22606568303114
 20
90.16877538448955
 30
0.0
 10
68.21555078048996
 20
90.115543406191
 30
0.0
 10
68.21203800850512
 20
90.07878290249202
 30
0.0
 10
68.21023749840235
 20
90.05994090005674
 30
0.0
  0
SPLINE
  5
131
330
1F
100
AcDbEntity
  8
0
  6
Continuous
 62
     7
370
    15
100
AcDbSpline
210
0.0
220
0.0
230
1.0
 70
     8
 71
     3
 72
    23
 73
    19
 74
     0
 42
0.00000001
 43
0.00000001
 12
1.0
 22
0.0
 32
0.0
 13
1.0
 23
0.0
 33
0.0
 40
0.0
 40
0.0
 40
0.0
 40
0.0
 40
0.0619654006870624
 40
0.1221219056382949
 40
0.1809884968498408
 40
0.2399332164519032
 40
0.2999058311065232
 40
0.3599888474769871
 40
0.4217757417416436
 40
0.4865758264211237
 40
0.5515348046197386
 40
0.6150175427599794
 40
0.677258616661657
 40
0.7397299623627113
 40
0.8030501026629482
 40
0.8664951320156976
 40
0.9319734741771476
 40
1.0
 40
1.0
 40
1.0
 40
1.0
 10
69.16002382318867
 20
90.11930254535588
 30
0.0
 10
69.15963935046473
 20
90.13374510534719
 30
0.0
 10
69.15888162855555
 20
90.16220861770854
 30
0.0
 10
69.15219435435691
 20
90.20394067197218
 30
0.0
 10
69.14208847686166
 20
90.24419653556555
 30
0.0
 10
69.12760729699457
 20
90.28310003379396
 30
0.0
 10
69.10849274465724
 20
90.32026002337685
 30
0.0
 10
69.08522551013566
 20
90.3557217375952
 30
0.0
 10
69.05838009083057
 20
90.39000506416858
 30
0.0
 10
69.02732479937809
 20
90.42215015394656
 30
0.0
 10
68.99320926120934
 20
90.45159069250025
 30
0.0
 10
68.95716892931735
 20
90.47767049653655
 30
0.0
 10
68.91903862816966
 20
90.49946557782917
 30
0.0
 10
68.87897912571096
 20
90.51733235945733
 30
0.0
 10
68.83710210373542
 20
90.53134794713321
 30
0.0
 10
68.7933265673995
 20
90.5410595642129
 30
0.0
 10
68.74777347183819
 20
90.5471570664092
 30
0.0
 10
68.71666845301574
 20
90.54798206561094
 30
0.0
 10
68.70081909562457
 20
90.54840243851828
 30
0.0
  0
LINE
  5
132
330
1F
100
AcDbEntity
  8
0
  6
Continuous
 62
     7
370
    15
100
AcDbLine
 10
79.0955813851
 20
81.1434719888
 30
0.0
 11
79.0955813851
 21
86.9854719888
 31
0.0
  0
LINE
  5
133
330
1F
100
AcDbEntity
  8
0
  6
Continuous
 62
     7
370
    15
100
AcDbLine
 10
74.0155813851
 20
81.1434719888
 30
0.0
 11
79.0955813851
 21
81.1434719888
 31
0.0
  0
LINE
  5
134
330
1F
100
AcDbEntity
  8
0
  6
Continuous
 62
     7
370
    15
100
AcDbLine
 10
74.0155813851
 20
86.9854719888
 30
0.0
 11
74.0155813851
 21
81.1434719888
 31
0.0
  0
LINE
  5
135
330
1F
100
AcDbEntity
  8
0
  6
Continuous
 62
     7
370
    15
100
AcDbLine
 10
58.7755813851
 20
86.9854719888
 30
0.0
 11
74.0155813851
 21
86.9854719888
 31
0.0
  0
ARC
  5
136
330
1F
100
AcDbEntity
  8
0
  6
Continuous
 62
     7
370
    15
100
AcDbCircle
 10
8.0654210574
 20
169.2096002509
 30
0.0
 40
96.60397315294364
100
AcDbArc
 50
301.6634172167
 51
341.0169662751
  0
LINE
  5
137
330
1F
100
AcDbEntity
  8
0
  6
Continuous
 62
     7
370
    15
100
AcDbLine
 10
99.4155813851
 20
112.3854719888
 30
0.0
 11
99.4155813851
 21
137.7854719888
 31
0.0
  0
LINE
  5
138
330
1F
100
AcDbEntity
  8
0
  6
Continuous
 62
     7
370
    15
100
AcDbLine
 10
105.2575813851
 20
112.3854719888
 30
0.0
 11
99.4155813851
 21
112.3854719888
 31
0.0
  0
LINE
  5
139
330
1F
100
AcDbEntity
  8
0
  6
Continuous
 62
     7
370
    15
100
AcDbLine
 10
105.2575813851
 20
107.3054719888
 30
0.0
 11
105.2575813851
 21
112.3854719888
 31
0.0
  0
LINE
  5
13A
330
1F
100
AcDbEntity
  8
0
  6
Continuous
 62
     7
370
    15
100
AcDbLine
 10
99.4155813851
 20
107.3054719888
 30
0.0
 11
105.2575813851
 21
107.3054719888
 31
0.0
  0
LINE
  5
13B
330
1F
100
AcDbEntity
  8
0
  6
Continuous
 62
     7
370
    15
100
AcDbLine
 10
99.4155813851
 20
86.9854719888
 30
0.0
 11
99.4155813851
 21
107.3054719888
 31
0.0
  0
LINE
  5
13C
330
1F
100
AcDbEntity
  8
0
  6
Continuous
 62
     7
370
    15
100
AcDbLine
 10
79.0955813851
 20
86.9854719888
 30
0.0
 11
99.4155813851
 21
86.9854719888
 31
0.0
  0
SPLINE
  5
13D
330
1F
100
AcDbEntity
  8
0
  6
Continuous
 62
     7
370
    15
100
AcDbSpline
210
0.0
220
0.0
230
1.0
 70
     8
 71
     3
 72
    23
 73
    19
 74
     0
 42
0.00000001
 43
0.00000001
 12
1.0
 22
0.0
 32
0.0
 13
1.0
 23
0.0
 33
0.0
 40
0.0
 40
0.0
 40
0.0
 40
0.0
 40
0.0552654294292533
 40
0.1099479507543717
 40
0.1638976208060345
 40
0.2180695737014833
 40
0.2732851511607933
 40
0.3308840720778562
 40
0.390478219558638
 40
0.4541190809354983
 40
0.5189409231034449
 40
0.5833792809311769
 40
0.6485746725268523
 40
0.7150779036892811
 40
0.7825379574848443
 40
0.8523470501177072
 40
0.9249408757112398
 40
1.0
 40
1.0
 40
1.0
 40
1.0
 10
55.56098958513429
 20
110.6171492396286
 30
0.0
 10
55.57204513494844
 20
110.6173943455547
 30
0.0
 10
55.59403962696782
 20
110.6178819721701
 30
0.0
 10
55.62627343402288
 20
110.6242771805478
 30
0.0
 10
55.65752228514717
 20
110.6334431600407
 30
0.0
 10
55.68742105808415
 20
110.6467594714882
 30
0.0
 10
55.71606479842283
 20
110.6639815100972
 30
0.0
 10
55.74355812241541
 20
110.6848176130159
 30
0.0
 10
55.7701635670632
 20
110.7093205603934
 30
0.0
 10
55.79529434999137
 20
110.737331234787
 30
0.0
 10
55.81791249974362
 20
110.7685918649772
 30
0.0
 10
55.83807626504026
 20
110.8018477710852
 30
0.0
 10
55.8550311211111
 20
110.8372286048489
 30
0.0
 10
55.86908554548516
 20
110.8745037988531
 30
0.0
 10
55.87963924631087
 20
110.9138748435062
 30
0.0
 10
55.88722184961591
 20
110.9551346165482
 30
0.0
 10
55.89196137392948
 20
110.998367936362
 30
0.0
 10
55.89264385100462
 20
111.0278631814365
 30
0.0
 10
55.89299078705736
 20
111.0428570387739
 30
0.0
  0
SPLINE
  5
13E
330
1F
100
AcDbEntity
  8
0
  6
Continuous
 62
     7
370
    15
100
AcDbSpline
210
0.0
220
0.0
230
1.0
 70
     8
 71
     3
 72
    19
 73
    15
 74
     0
 42
0.00000001
 43
0.00000001
 12
1.0
 22
0.0
 32
0.0
 13
1.0
 23
0.0
 33
0.0
 40
0.0
 40
0.0
 40
0.0
 40
0.0
 40
0.1101513778870517
 40
0.2156840408510353
 40
0.3180373845849145
 40
0.4181367779933922
 40
0.5116558022784801
 40
0.5966723572005849
 40
0.6738006776704182
 40
0.7445265998525866
 40
0.8107013618101399
 40
0.8740751675159232
 40
0.9367044473916136
 40
1.0
 40
1.0
 40
1.0
 40
1.0
 10
55.21457198363856
 20
111.1598842823636
 30
0.0
 10
55.21508234333098
 20
111.1337075717452
 30
0.0
 10
55.21608166302046
 20
111.0824517560609
 30
0.0
 10
55.22567928942212
 20
111.00736964614
 30
0.0
 10
55.24125759312036
 20
110.9357929323952
 30
0.0
 10
55.26300692891427
 20
110.8687982342871
 30
0.0
 10
55.28948502604562
 20
110.8080508120096
 30
0.0
 10
55.31913038017144
 20
110.754844690984
 30
0.0
 10
55.35333100262753
 20
110.7110939722965
 30
0.0
 10
55.39047018286783
 20
110.6760150772105
 30
0.0
 10
55.43055575202771
 20
110.6499966795934
 30
0.0
 10
55.47214553968735
 20
110.6307914353803
 30
0.0
 10
55.51601325920188
 20
110.6194319382197
 30
0.0
 10
55.54594468707642
 20
110.6179128183978
 30
0.0
 10
55.56098958513429
 20
110.6171492396286
 30
0.0
  0
LINE
  5
13F
330
1F
100
AcDbEntity
  8
0
  6
Continuous
 62
     7
370
    15
100
AcDbLine
 10
54.9974779665
 20
111.1598842824
 30
0.0
 11
55.2145719836
 21
111.1598842824
 31
0.0
  0
SPLINE
  5
140
330
1F
100
AcDbEntity
  8
0
  6
Continuous
 62
     7
370
    15
100
AcDbSpline
210
0.0
220
0.0
230
1.0
 70
     8
 71
     3
 72
    23
 73
    19
 74
     0
 42
0.00000001
 43
0.00000001
 12
1.0
 22
0.0
 32
0.0
 13
1.0
 23
0.0
 33
0.0
 40
0.0
 40
0.0
 40
0.0
 40
0.0
 40
0.0669025611986253
 40
0.1334722245710303
 40
0.2010152128987442
 40
0.2716179086809925
 40
0.3428843170151097
 40
0.4138334373834406
 40
0.4855715419705984
 40
0.5598171257698292
 40
0.599915280736832
 40
0.6436230850318255
 40
0.6919224361141858
 40
0.7447128019262268
 40
0.8015114286639147
 40
0.862871276123035
 40
0.929335376305204
 40
1.0
 40
1.0
 40
1.0
 40
1.0
 10
54.54972155628813
 20
110.5086022310816
 30
0.0
 10
54.56944241257547
 20
110.5095296301858
 30
0.0
 10
54.60878599691601
 20
110.5113798137856
 30
0.0
 10
54.66669089922325
 20
110.5254470313336
 30
0.0
 10
54.72250361282033
 20
110.5487925299146
 30
0.0
 10
54.77549322247035
 20
110.5808397584344
 30
0.0
 10
54.82402979428598
 20
110.6207860720596
 30
0.0
 10
54.86747525802036
 20
110.6667432106551
 30
0.0
 10
54.90365029162717
 20
110.7196917551082
 30
0.0
 10
54.92857441621727
 20
110.7687014621362
 30
0.0
 10
54.94518037615896
 20
110.8122255142584
 30
0.0
 10
54.95682499154297
 20
110.8493972628214
 30
0.0
 10
54.96613326199766
 20
110.8910493638756
 30
0.0
 10
54.975137243841
 20
110.9366813350976
 30
0.0
 10
54.98268558863188
 20
110.9864857702224
 30
0.0
 10
54.98900762991303
 20
111.0405074970963
 30
0.0
 10
54.9940583076967
 20
111.0987682619158
 30
0.0
 10
54.996315037565
 20
111.1391004572935
 30
0.0
 10
54.99747796654454
 20
111.1598842823636
 30
0.0
  0
SPLINE
  5
141
330
1F
100
AcDbEntity
  8
0
  6
Continuous
 62
     7
370
    15
100
AcDbSpline
210
0.0
220
0.0
230
1.0
 70
     8
 71
     3
 72
    23
 73
    19
 74
     0
 42
0.00000001
 43
0.00000001
 12
1.0
 22
0.0
 32
0.0
 13
1.0
 23
0.0
 33
0.0
 40
0.0
 40
0.0
 40
0.0
 40
0.0
 40
0.0760618905628292
 40
0.1487324608035346
 40
0.2183745247439734
 40
0.2857225935927332
 40
0.3510576941824531
 40
0.4149349157293203
 40
0.4784859417740868
 40
0.5421690352812171
 40
0.6047501165431399
 40
0.664118501730112
 40
0.721499675609913
 40
0.7776159163852543
 40
0.8326661086975473
 40
0.8878580281135747
 40
0.9434676608977686
 40
1.0
 40
1.0
 40
1.0
 40
1.0
 10
54.10196514603172
 20
111.0475211680474
 30
0.0
 10
54.10233701629701
 20
111.0277128292657
 30
0.0
 10
54.10306417649835
 20
110.988979332772
 30
0.0
 10
54.10977080523083
 20
110.9324651401199
 30
0.0
 10
54.11949562579735
 20
110.8786839179689
 30
0.0
 10
54.13470713597489
 20
110.828184503528
 30
0.0
 10
54.15295585533261
 20
110.78027972369
 30
0.0
 10
54.17684677821743
 20
110.7360389515417
 30
0.0
 10
54.20382771321457
 20
110.6941615630404
 30
0.0
 10
54.23521172985821
 20
110.6558743721323
 30
0.0
 10
54.26913445478309
 20
110.6213565973911
 30
0.0
 10
54.30512344280852
 20
110.5915294262822
 30
0.0
 10
54.34206280110155
 20
110.5656956847859
 30
0.0
 10
54.3808142502243
 20
110.5449296678682
 30
0.0
 10
54.42099766961304
 20
110.5285027738223
 30
0.0
 10
54.46276346616245
 20
110.5173267803375
 30
0.0
 10
54.50575994573231
 20
110.5095541565455
 30
0.0
 10
54.53498752440826
 20
110.5089212753558
 30
0.0
 10
54.54972155628813
 20
110.5086022310816
 30
0.0
  0
SPLINE
  5
142
330
1F
100
AcDbEntity
  8
0
  6
Continuous
 62
     7
370
    15
100
AcDbSpline
210
0.0
220
0.0
230
1.0
 70
     8
 71
     3
 72
    15
 73
    11
 74
     0
 42
0.00000001
 43
0.00000001
 12
1.0
 22
0.0
 32
0.0
 13
1.0
 23
0.0
 33
0.0
 40
0.0
 40
0.0
 40
0.0
 40
0.0
 40
0.1182604269470942
 40
0.236155810884084
 40
0.3556302211949975
 40
0.4762494473041234
 40
0.6001641196112156
 40
0.7286330771605707
 40
0.8613262312325799
 40
1.0
 40
1.0
 40
1.0
 40
1.0
 10
54.21644831910864
 20
111.4011469693294
 30
0.0
 10
54.20731514191274
 20
111.3892943826827
 30
0.0
 10
54.18907697955931
 20
111.3656257956253
 30
0.0
 10
54.16573611729951
 20
111.3270810648814
 30
0.0
 10
54.14575689724083
 20
111.2864019861288
 30
0.0
 10
54.12951694984783
 20
111.2432493245147
 30
0.0
 10
54.11732665955036
 20
111.1976172913352
 30
0.0
 10
54.10855266223425
 20
111.1496909892574
 30
0.0
 10
54.10276046081257
 20
111.0993917832384
 30
0.0
 10
54.10223411762472
 20
111.0650635579713
 30
0.0
 10
54.10196514603172
 20
111.0475211680474
 30
0.0
  0
SPLINE
  5
143
330
1F
100
AcDbEntity
  8
0
  6
Continuous
 62
     7
370
    15
100
AcDbSpline
210
0.0
220
0.0
230
1.0
 70
     8
 71
     3
 72
    15
 73
    11
 74
     0
 42
0.00000001
 43
0.00000001
 12
1.0
 22
0.0
 32
0.0
 13
1.0
 23
0.0
 33
0.0
 40
0.0
 40
0.0
 40
0.0
 40
0.0
 40
0.1497703860319647
 40
0.2913164099952411
 40
0.4259663731047408
 40
0.5521595739695215
 40
0.6715274135235848
 40
0.7861216286916514
 40
0.8953250730704423
 40
1.0
 40
1.0
 40
1.0
 40
1.0
 10
54.50901642808301
 20
111.5669355644149
 30
0.0
 10
54.49271869148721
 20
111.5619866214962
 30
0.0
 10
54.46101817817531
 20
111.5523604976507
 30
0.0
 10
54.41539475521954
 20
111.5359748983628
 30
0.0
 10
54.37357059922169
 20
111.5173069433488
 30
0.0
 10
54.33523890164453
 20
111.4972805197927
 30
0.0
 10
54.30002216301143
 20
111.4762478405314
 30
0.0
 10
54.2688516041194
 20
111.4527135762822
 30
0.0
 10
54.24035812468776
 20
111.4284208075502
 30
0.0
 10
54.22430495460964
 20
111.4101090081425
 30
0.0
 10
54.21644831910864
 20
111.4011469693294
 30
0.0
  0
LINE
  5
144
330
1F
100
AcDbEntity
  8
0
  6
Continuous
 62
     7
370
    15
100
AcDbLine
 10
54.5090164281
 20
111.7568928294
 30
0.0
 11
54.5090164281
 21
111.5669355644
 31
0.0
  0
SPLINE
  5
145
330
1F
100
AcDbEntity
  8
0
  6
Continuous
 62
     7
370
    15
100
AcDbSpline
210
0.0
220
0.0
230
1.0
 70
     8
 71
     3
 72
    23
 73
    19
 74
     0
 42
0.00000001
 43
0.00000001
 12
1.0
 22
0.0
 32
0.0
 13
1.0
 23
0.0
 33
0.0
 40
0.0
 40
0.0
 40
0.0
 40
0.0
 40
0.065537724722394
 40
0.1289563879612299
 40
0.1903671277264805
 40
0.2499654671000651
 40
0.3085687536915756
 40
0.3664152430357333
 40
0.4245564125025192
 40
0.483181137491437
 40
0.5422514353065646
 40
0.601744259685551
 40
0.6625077153077692
 40
0.7244995565544725
 40
0.789138915203405
 40
0.8563539520018305
 40
0.9262991097764984
 40
1.0
 40
1.0
 40
1.0
 40
1.0
 10
53.88487112893771
 20
111.0509132620645
 30
0.0
 10
53.88540077088371
 20
111.073541604924
 30
0.0
 10
53.88644292961836
 20
111.1180666379957
 30
0.0
 10
53.89344048074108
 20
111.1835484689418
 30
0.0
 10
53.90656839808209
 20
111.2459214855008
 30
0.0
 10
53.92307857105197
 20
111.3057913544397
 30
0.0
 10
53.94590573487845
 20
111.362254493964
 30
0.0
 10
53.973119943188
 20
111.4161230734911
 30
0.0
 10
54.00541906842444
 20
111.4671609685403
 30
0.0
 10
54.04285742841664
 20
111.5150650814622
 30
0.0
 10
54.08476407380377
 20
111.5597842330028
 30
0.0
 10
54.13183519154151
 20
111.6001791271683
 30
0.0
 10
54.18319227111237
 20
111.6366966907085
 30
0.0
 10
54.23929727802351
 20
111.6691048955612
 30
0.0
 10
54.29999307005276
 20
111.6975401351187
 30
0.0
 10
54.36552286626748
 20
111.721390481029
 30
0.0
 10
54.43537865097284
 20
111.7422147790642
 30
0.0
 10
54.48404635134071
 20
111.7519156008761
 30
0.0
 10
54.50901642808301
 20
111.7568928293721
 30
0.0
  0
SPLINE
  5
146
330
1F
100
AcDbEntity
  8
0
  6
Continuous
 62
     7
370
    15
100
AcDbSpline
210
0.0
220
0.0
230
1.0
 70
     8
 71
     3
 72
    19
 73
    15
 74
     0
 42
0.00000001
 43
0.00000001
 12
1.0
 22
0.0
 32
0.0
 13
1.0
 23
0.0
 33
0.0
 40
0.0
 40
0.0
 40
0.0
 40
0.0
 40
0.0796349660380422
 40
0.158895168653834
 40
0.23957952676522
 40
0.3223821210874965
 40
0.4057934127573042
 40
0.487884263908505
 40
0.5697105896098886
 40
0.6530482051842884
 40
0.7374337002462257
 40
0.8225728805582563
 40
0.9097627089986438
 40
1.0
 40
1.0
 40
1.0
 40
1.0
 10
54.56795406163002
 20
110.3186449661243
 30
0.0
 10
54.5383161797882
 20
110.3197327652228
 30
0.0
 10
54.47917989244993
 20
110.32190324422
 30
0.0
 10
54.39178712733111
 20
110.3412199041789
 30
0.0
 10
54.30651808189967
 20
110.3713514508806
 30
0.0
 10
54.22458203306203
 20
110.413344756143
 30
0.0
 10
54.14815388065281
 20
110.4655360776557
 30
0.0
 10
54.07957462698677
 20
110.5272855106321
 30
0.0
 10
54.02116354876838
 20
110.5986588049495
 30
0.0
 10
53.97192664759774
 20
110.6775778788636
 30
0.0
 10
53.93290695869647
 20
110.7634095972157
 30
0.0
 10
53.90479011028383
 20
110.854848596638
 30
0.0
 10
53.88792394494525
 20
110.951353495132
 30
0.0
 10
53.88590032010283
 20
111.0173488309701
 30
0.0
 10
53.88487112893771
 20
111.0509132620645
 30
0.0
  0
SPLINE
  5
147
330
1F
100
AcDbEntity
  8
0
  6
Continuous
 62
     7
370
    15
100
AcDbSpline
210
0.0
220
0.0
230
1.0
 70
     8
 71
     3
 72
    15
 73
    11
 74
     0
 42
0.00000001
 43
0.00000001
 12
1.0
 22
0.0
 32
0.0
 13
1.0
 23
0.0
 33
0.0
 40
0.0
 40
0.0
 40
0.0
 40
0.0
 40
0.1281455049994615
 40
0.2541925386280421
 40
0.3781411397135868
 40
0.5013808330744036
 40
0.6239569784447043
 40
0.7470758858273291
 40
0.8728647202442619
 40
0.9999999999999999
 40
0.9999999999999999
 40
0.9999999999999999
 40
0.9999999999999999
 10
54.94405248577532
 20
110.445000468261
 30
0.0
 10
54.93010952206448
 20
110.4348113200853
 30
0.0
 10
54.90245192032751
 20
110.41459987809
 30
0.0
 10
54.85795818072942
 20
110.3897227671975
 30
0.0
 10
54.81311857403042
 20
110.36689634117
 30
0.0
 10
54.76617006472746
 20
110.3500967523691
 30
0.0
 10
54.71862072198518
 20
110.335599372962
 30
0.0
 10
54.6694523243355
 20
110.3260605800391
 30
0.0
 10
54.61913201317437
 20
110.3199370565346
 30
0.0
 10
54.585073815255
 20
110.3190771887674
 30
0.0
 10
54.56795406163002
 20
110.3186449661243
 30
0.0
  0
SPLINE
  5
148
330
1F
100
AcDbEntity
  8
0
  6
Continuous
 62
     7
370
    15
100
AcDbSpline
210
0.0
220
0.0
230
1.0
 70
     8
 71
     3
 72
    11
 73
     7
 74
     0
 42
0.00000001
 43
0.00000001
 12
1.0
 22
0.0
 32
0.0
 13
1.0
 23
0.0
 33
0.0
 40
0.0
 40
0.0
 40
0.0
 40
0.0
 40
0.2539158886230788
 40
0.5038961297186492
 40
0.7502553885301045
 40
1.0
 40
1.0
 40
1.0
 40
1.0
 10
55.12468149218557
 20
110.674390826167
 30
0.0
 10
55.11384839375018
 20
110.6518457792691
 30
0.0
 10
55.09235010782542
 20
110.607105129372
 30
0.0
 10
55.04951877741678
 20
110.5467369358457
 30
0.0
 10
55.00128006837731
 20
110.4910997560695
 30
0.0
 10
54.96321493060425
 20
110.4604366446487
 30
0.0
 10
54.94405248577532
 20
110.445000468261
 30
0.0
  0
SPLINE
  5
149
330
1F
100
AcDbEntity
  8
0
  6
Continuous
 62
     7
370
    15
100
AcDbSpline
210
0.0
220
0.0
230
1.0
 70
     8
 71
     3
 72
    15
 73
    11
 74
     0
 42
0.00000001
 43
0.00000001
 12
1.0
 22
0.0
 32
0.0
 13
1.0
 23
0.0
 33
0.0
 40
0.0
 40
0.0
 40
0.0
 40
0.0
 40
0.1280675485958903
 40
0.2506083188676684
 40
0.3706301659145039
 40
0.4900722467299509
 40
0.6103747641546218
 40
0.7343130699115269
 40
0.8632165042449982
 40
1.0
 40
1.0
 40
1.0
 40
1.0
 10
55.56014156163001
 20
110.4271919746713
 30
0.0
 10
55.53776126197472
 20
110.4278956702093
 30
0.0
 10
55.49396648856133
 20
110.4292726931765
 30
0.0
 10
55.43003015457776
 20
110.4409649817785
 30
0.0
 10
55.36977071059758
 20
110.4606416740893
 30
0.0
 10
55.31293448398004
 20
110.4878981495531
 30
0.0
 10
55.25988184275369
 20
110.5231808966032
 30
0.0
 10
55.21049342304281
 20
110.5659210513892
 30
0.0
 10
55.16455017027001
 20
110.6164202801772
 30
0.0
 10
55.13823125089913
 20
110.6546889712675
 30
0.0
 10
55.12468149218557
 20
110.674390826167
 30
0.0
  0
SPLINE
  5
14A
330
1F
100
AcDbEntity
  8
0
  6
Continuous
 62
     7
370
    15
100
AcDbSpline
210
0.0
220
0.0
230
1.0
 70
     8
 71
     3
 72
    19
 73
    15
 74
     0
 42
0.00000001
 43
0.00000001
 12
1.0
 22
0.0
 32
0.0
 13
1.0
 23
0.0
 33
0.0
 40
0.0
 40
0.0
 40
0.0
 40
0.0
 40
0.0902542493426805
 40
0.1785397915286845
 40
0.2660930338538227
 40
0.3546309779571744
 40
0.4418861533505639
 40
0.5257469151636515
 40
0.6081136336036391
 40
0.6901972728278832
 40
0.7708214843303356
 40
0.8483261812554105
 40
0.9240117400247437
 40
1.0
 40
1.0
 40
1.0
 40
1.0
 10
56.11008480415138
 20
111.0454011092867
 30
0.0
 10
56.10925069824134
 20
111.0177739271746
 30
0.0
 10
56.10760068069229
 20
110.963122191985
 30
0.0
 10
56.09253337863112
 20
110.8828321588292
 30
0.0
 10
56.06869056049312
 20
110.8054064158484
 30
0.0
 10
56.03574692551025
 20
110.731692442169
 30
0.0
 10
55.99511459802652
 20
110.6632222472179
 30
0.0
 10
55.94675497142825
 20
110.6023008390423
 30
0.0
 10
55.89160110814781
 20
110.5497539777466
 30
0.0
 10
55.83068189067895
 20
110.5056702350664
 30
0.0
 10
55.76557593976399
 20
110.4711534499244
 30
0.0
 10
55.69856822567969
 20
110.4457012145343
 30
0.0
 10
55.62981770012544
 20
110.4302061979303
 30
0.0
 10
55.58339782176712
 20
110.4281980516689
 30
0.0
 10
55.56014156163001
 20
110.4271919746713
 30
0.0
  0
SPLINE
  5
14B
330
1F
100
AcDbEntity
  8
0
  6
Continuous
 62
     7
370
    15
100
AcDbSpline
210
0.0
220
0.0
230
1.0
 70
     8
 71
     3
 72
    23
 73
    19
 74
     0
 42
0.00000001
 43
0.00000001
 12
1.0
 22
0.0
 32
0.0
 13
1.0
 23
0.0
 33
0.0
 40
0.0
 40
0.0
 40
0.0
 40
0.0
 40
0.0726253460834344
 40
0.1419766113262335
 40
0.2089849284189383
 40
0.2739568703644448
 40
0.3368893473968417
 40
0.3987449534945921
 40
0.4601158852788617
 40
0.5208249225900302
 40
0.5809944586324853
 40
0.6401519276014646
 40
0.6986224507562594
 40
0.7572710809271685
 40
0.8164266940046652
 40
0.8762540482034746
 40
0.9371652930625387
 40
0.9999999999999999
 40
0.9999999999999999
 40
0.9999999999999999
 40
0.9999999999999999
 10
55.56734976141634
 20
111.6754825729619
 30
0.0
 10
55.58865702553478
 20
111.6703363208834
 30
0.0
 10
55.63031098409485
 20
111.6602758189988
 30
0.0
 10
55.68982394660727
 20
111.6392920483772
 30
0.0
 10
55.74614150478166
 20
111.6164324988071
 30
0.0
 10
55.7982091303022
 20
111.5889828974751
 30
0.0
 10
55.8470732286215
 20
111.5590418889669
 30
0.0
 10
55.89162550865699
 20
111.5247381478476
 30
0.0
 10
55.93299906396329
 20
111.4876543156292
 30
0.0
 10
55.96971611715265
 20
111.446636370099
 30
0.0
 10
56.00296455338719
 20
111.403620465202
 30
0.0
 10
56.03131280235138
 20
111.3580004808765
 30
0.0
 10
56.05569931384561
 20
111.3106942547043
 30
0.0
 10
56.0757896445512
 20
111.261374026683
 30
0.0
 10
56.09092412791117
 20
111.2098929609455
 30
0.0
 10
56.10190467224464
 20
111.156716474461
 30
0.0
 10
56.10903548893624
 20
111.1017052148678
 30
0.0
 10
56.10973142661227
 20
111.0643626243632
 30
0.0
 10
56.11008480415138
 20
111.0454011092867
 30
0.0
  0
LINE
  5
14C
330
1F
100
AcDbEntity
  8
0
  6
Continuous
 62
     7
370
    15
100
AcDbLine
 10
55.5673497614
 20
111.485525308
 30
0.0
 11
55.5673497614
 21
111.675482573
 31
0.0
  0
SPLINE
  5
14D
330
1F
100
AcDbEntity
  8
0
  6
Continuous
 62
     7
370
    15
100
AcDbSpline
210
0.0
220
0.0
230
1.0
 70
     8
 71
     3
 72
    19
 73
    15
 74
     0
 42
0.00000001
 43
0.00000001
 12
1.0
 22
0.0
 32
0.0
 13
1.0
 23
0.0
 33
0.0
 40
0.0
 40
0.0
 40
0.0
 40
0.0
 40
0.1227280999764623
 40
0.2397165235883967
 40
0.3518621792202508
 40
0.463201981803226
 40
0.5202611541541631
 40
0.5794324380306721
 40
0.6405963441586374
 40
0.7052982290880215
 40
0.7732361059084564
 40
0.844648929340315
 40
0.920045981777369
 40
1.0
 40
1.0
 40
1.0
 40
1.0
 10
55.89299078705736
 20
111.0428570387738
 30
0.0
 10
55.89215097648883
 20
111.066958605852
 30
0.0
 10
55.89051063112374
 20
111.1140345719437
 30
0.0
 10
55.87609273474841
 20
111.1818867823672
 30
0.0
 10
55.85324906422273
 20
111.2448994819971
 30
0.0
 10
55.82566539981632
 20
111.2929024482187
 30
0.0
 10
55.79853046359327
 20
111.3284096794246
 30
0.0
 10
55.77518627800243
 20
111.3542692811144
 30
0.0
 10
55.74871875286744
 20
111.3792005860938
 30
0.0
 10
55.71840191376123
 20
111.4022252673454
 30
0.0
 10
55.68527823407599
 20
111.4247230125269
 30
0.0
 10
55.64916528091749
 20
111.446479001801
 30
0.0
 10
55.6095481916509
 20
111.4667944322886
 30
0.0
 10
55.58168831259671
 20
111.479160767461
 30
0.0
 10
55.56734976141634
 20
111.4855253080046
 30
0.0
  0
LINE
  5
14E
330
1F
100
AcDbEntity
  8
0
  6
Continuous
 62
     7
370
    15
100
AcDbLine
 10
52.6495687427
 20
143.7602571736
 30
0.0
 11
72.9695687427
 21
143.7602571736
 31
0.0
  0
LINE
  5
14F
330
1F
100
AcDbEntity
  8
0
  6
Continuous
 62
     7
370
    15
100
AcDbLine
 10
72.9695687427
 20
143.7602571736
 30
0.0
 11
72.9695687427
 21
149.6022571736
 31
0.0
  0
LINE
  5
150
330
1F
100
AcDbEntity
  8
0
  6
Continuous
 62
     7
370
    15
100
AcDbLine
 10
72.9695687427
 20
149.6022571736
 30
0.0
 11
78.0495687427
 21
149.6022571736
 31
0.0
  0
LINE
  5
151
330
1F
100
AcDbEntity
  8
0
  6
Continuous
 62
     7
370
    15
100
AcDbLine
 10
78.0495687427
 20
149.6022571736
 30
0.0
 11
78.0495687427
 21
143.7602571736
 31
0.0
  0
LINE
  5
152
330
1F
100
AcDbEntity
  8
0
  6
Continuous
 62
     7
370
    15
100
AcDbLine
 10
78.0495687427
 20
143.7602571736
 30
0.0
 11
103.4495687427
 21
143.7602571736
 31
0.0
  0
ARC
  5
153
330
1F
100
AcDbEntity
  8
0
  6
Continuous
 62
     7
370
    15
100
AcDbCircle
 10
134.8736970048
 20
52.4100968459
 30
0.0
 40
96.60397315294364
100
AcDbArc
 50
108.9830337249
 51
148.3365827833
  0
LINE
  5
154
330
1F
100
AcDbEntity
  8
0
  6
Continuous
 62
     7
370
    15
100
AcDbLine
 10
52.6495687427
 20
103.1202571736
 30
0.0
 11
52.6495687427
 21
118.3602571736
 31
0.0
  0
LINE
  5
155
330
1F
100
AcDbEntity
  8
0
  6
Continuous
 62
     7
370
    15
100
AcDbLine
 10
52.6495687427
 20
118.3602571736
 30
0.0
 11
46.8075687427
 21
118.3602571736
 31
0.0
  0
LINE
  5
156
330
1F
100
AcDbEntity
  8
0
  6
Continuous
 62
     7
370
    15
100
AcDbLine
 10
46.8075687427
 20
118.3602571736
 30
0.0
 11
46.8075687427
 21
123.4402571736
 31
0.0
  0
LINE
  5
157
330
1F
100
AcDbEntity
  8
0
  6
Continuous
 62
     7
370
    15
100
AcDbLine
 10
46.8075687427
 20
123.4402571736
 30
0.0
 11
52.6495687427
 21
123.4402571736
 31
0.0
  0
LINE
  5
158
330
1F
100
AcDbEntity
  8
0
  6
Continuous
 62
     7
370
    15
100
AcDbLine
 10
52.6495687427
 20
123.4402571736
 30
0.0
 11
52.6495687427
 21
143.7602571736
 31
0.0
  0
LINE
  5
159
330
1F
100
AcDbEntity
  8
0
  6
Continuous
 62
     7
370
    15
100
AcDbLine
 10
229.0724459892
 20
22.0181155772
 30
0.0
 11
229.2895400063
 21
23.0764489105
 31
0.0
  0
SPLINE
  5
15A
330
1F
100
AcDbEntity
  8
0
  6
Continuous
 62
     7
370
    15
100
AcDbSpline
210
0.0
220
0.0
230
1.0
 70
     8
 71
     3
 72
    15
 73
    11
 74
     0
 42
0.00000001
 43
0.00000001
 12
1.0
 22
0.0
 32
0.0
 13
1.0
 23
0.0
 33
0.0
 40
0.0
 40
0.0
 40
0.0
 40
0.0
 40
0.1022030370352187
 40
0.2110233423738743
 40
0.32509966156521
 40
0.4465020971348909
 40
0.5737877176488557
 40
0.7089007097660677
 40
0.850357871293401
 40
1.0
 40
1.0
 40
1.0
 40
1.0
 10
229.538858916521
 20
22.12666258573967
 30
0.0
 10
229.5224523738619
 20
22.12631146632532
 30
0.0
 10
229.4885770256417
 20
22.12558649381435
 30
0.0
 10
229.4366141732863
 20
22.12024856478129
 30
0.0
 10
229.3820091789147
 20
22.11163718196046
 30
0.0
 10
229.3249713649355
 20
22.09979216563387
 30
0.0
 10
229.2653294386065
 20
22.08429146683222
 30
0.0
 10
229.2032092629286
 20
22.06571650693009
 30
0.0
 10
229.138480225509
 20
22.04350844104139
 30
0.0
 10
229.0948661731345
 20
22.02673705463269
 30
0.0
 10
229.0724459891705
 20
22.01811557719267
 30
0.0
  0
SPLINE
  5
15B
330
1F
100
AcDbEntity
  8
0
  6
Continuous
 62
     7
370
    15
100
AcDbSpline
210
0.0
220
0.0
230
1.0
 70
     8
 71
     3
 72
    23
 73
    19
 74
     0
 42
0.00000001
 43
0.00000001
 12
1.0
 22
0.0
 32
0.0
 13
1.0
 23
0.0
 33
0.0
 40
0.0
 40
0.0
 40
0.0
 40
0.0
 40
0.0653513820265949
 40
0.1279160318306141
 40
0.1883602055717002
 40
0.2472160772654506
 40
0.3056301291974099
 40
0.3637698398318178
 40
0.4226609139127798
 40
0.4826872940903901
 40
0.5433002212395578
 40
0.6041179553231033
 40
0.6649648912652834
 40
0.7274134941125653
 40
0.7914676251494243
 40
0.8580554427290997
 40
0.9270368146149471
 40
1.0
 40
1.0
 40
1.0
 40
1.0
 10
230.0493690660936
 20
21.65940163488497
 30
0.0
 10
230.0489708428003
 20
21.67638077991303
 30
0.0
 10
230.0481913773645
 20
21.70961504043688
 30
0.0
 10
230.0418228896099
 20
21.75823741766563
 30
0.0
 10
230.0307454825198
 20
21.80424349562897
 30
0.0
 10
230.0153700884566
 20
21.84785543712631
 30
0.0
 10
229.9958486718748
 20
21.88911437607012
 30
0.0
 10
229.9719930449011
 20
21.92806289342928
 30
0.0
 10
229.9433555137638
 20
21.96418764018825
 30
0.0
 10
229.9106428001888
 20
21.99750551784733
 30
0.0
 10
229.8748057944756
 20
22.02825456122297
 30
0.0
 10
229.8352279120478
 20
22.05446741350582
 30
0.0
 10
229.7927373848907
 20
22.07651940180002
 30
0.0
 10
229.7478461509262
 20
22.09555004841684
 30
0.0
 10
229.6994864265424
 20
22.10921811825357
 30
0.0
 10
229.6486158917225
 20
22.11947964897332
 30
0.0
 10
229.5946852159641
 20
22.12541560640256
 30
0.0
 10
229.5578124664736
 20
22.12623922461075
 30
0.0
 10
229.538858916521
 20
22.12666258573967
 30
0.0
  0
SPLINE
  5
15C
330
1F
100
AcDbEntity
  8
0
  6
Continuous
 62
     7
370
    15
100
AcDbSpline
210
0.0
220
0.0
230
1.0
 70
     8
 71
     3
 72
    23
 73
    19
 74
     0
 42
0.00000001
 43
0.00000001
 12
1.0
 22
0.0
 32
0.0
 13
1.0
 23
0.0
 33
0.0
 40
0.0
 40
0.0
 40
0.0
 40
0.0
 40
0.0642072952829851
 40
0.1264246897797416
 40
0.1876802842649226
 40
0.2482164244552119
 40
0.3083050600086122
 40
0.3696609913251436
 40
0.4316985517867802
 40
0.4959468922087635
 40
0.5597580239721204
 40
0.6222954078261597
 40
0.6839106352841744
 40
0.7450924080566235
 40
0.8067402253892909
 40
0.8690866181212015
 40
0.9332900029748006
 40
0.9999999999999999
 40
0.9999999999999999
 40
0.9999999999999999
 40
0.9999999999999999
 10
229.5121461761364
 20
21.12260275667984
 30
0.0
 10
229.5302639020458
 20
21.12309913188912
 30
0.0
 10
229.5659378526075
 20
21.1240764987377
 30
0.0
 10
229.618438072179
 20
21.13159913938253
 30
0.0
 10
229.669124905625
 20
21.14318490869713
 30
0.0
 10
229.7174982118555
 20
21.16052334480636
 30
0.0
 10
229.7644044762736
 20
21.18159610309245
 30
0.0
 10
229.8086571850533
 20
21.20863807751443
 30
0.0
 10
229.851536544086
 20
21.23975913628832
 30
0.0
 10
229.891709748644
 20
21.2754138601717
 30
0.0
 10
229.9285031298628
 20
21.31470505644144
 30
0.0
 10
229.9610127840724
 20
21.35672233722698
 30
0.0
 10
229.9880921555254
 20
21.4015453825172
 30
0.0
 10
230.0109123070799
 20
21.44839819400323
 30
0.0
 10
230.0282407306536
 20
21.49779427382067
 30
0.0
 10
230.0406026573931
 20
21.54950212737733
 30
0.0
 10
230.0478616501071
 20
21.60364947254979
 30
0.0
 10
230.048860220852
 20
21.64058186465254
 30
0.0
 10
230.0493690660936
 20
21.65940163488497
 30
0.0
  0
SPLINE
  5
15D
330
1F
100
AcDbEntity
  8
0
  6
Continuous
 62
     7
370
    15
100
AcDbSpline
210
0.0
220
0.0
230
1.0
 70
     8
 71
     3
 72
    19
 73
    15
 74
     0
 42
0.00000001
 43
0.00000001
 12
1.0
 22
0.0
 32
0.0
 13
1.0
 23
0.0
 33
0.0
 40
0.0
 40
0.0
 40
0.0
 40
0.0
 40
0.0946872518675571
 40
0.1819941557072747
 40
0.2643769486105124
 40
0.3421798619477719
 40
0.4186176108621467
 40
0.4965090753719096
 40
0.5773690916117351
 40
0.6615105924541993
 40
0.7467325508291981
 40
0.8312579843277437
 40
0.9152056162136549
 40
1.0
 40
1.0
 40
1.0
 40
1.0
 10
229.0453092370338
 20
21.50251728659437
 30
0.0
 10
229.0499831741221
 20
21.48233247963733
 30
0.0
 10
229.0589667407316
 20
21.44353615988143
 30
0.0
 10
229.078685455453
 20
21.3890281582181
 30
0.0
 10
229.1027948182389
 20
21.34045415151879
 30
0.0
 10
229.1314631622818
 20
21.29717159401527
 30
0.0
 10
229.1656624664329
 20
21.25942900995059
 30
0.0
 10
229.2046874067923
 20
21.22579392963583
 30
0.0
 10
229.2484405536794
 20
21.19544992285204
 30
0.0
 10
229.2970593162939
 20
21.17015710649938
 30
0.0
 10
229.3483510356923
 20
21.14858600325271
 30
0.0
 10
229.4020340626982
 20
21.1342218829724
 30
0.0
 10
229.4566466912783
 20
21.12412181920557
 30
0.0
 10
229.4935845627781
 20
21.12311080195885
 30
0.0
 10
229.5121461761364
 20
21.12260275667984
 30
0.0
  0
LINE
  5
15E
330
1F
100
AcDbEntity
  8
0
  6
Continuous
 62
     7
370
    15
100
AcDbLine
 10
228.8553519721
 20
21.5025172866
 30
0.0
 11
229.045309237
 21
21.5025172866
 31
0.0
  0
SPLINE
  5
15F
330
1F
100
AcDbEntity
  8
0
  6
Continuous
 62
     7
370
    15
100
AcDbSpline
210
0.0
220
0.0
230
1.0
 70
     8
 71
     3
 72
    23
 73
    19
 74
     0
 42
0.00000001
 43
0.00000001
 12
1.0
 22
0.0
 32
0.0
 13
1.0
 23
0.0
 33
0.0
 40
0.0
 40
0.0
 40
0.0
 40
0.0
 40
0.0654211437588933
 40
0.1287083718818832
 40
0.190236141863538
 40
0.2507244020335393
 40
0.3106371794134437
 40
0.3707664082897256
 40
0.4316147444123523
 40
0.4935229735663526
 40
0.555883455377534
 40
0.6173423673185088
 40
0.6786680390972732
 40
0.7407113595451486
 40
0.8029853625127423
 40
0.8668025802655155
 40
0.9323471713458863
 40
1.0
 40
1.0
 40
1.0
 40
1.0
 10
229.5011218705808
 20
20.90550873958583
 30
0.0
 10
229.4800312946323
 20
20.905926532081
 30
0.0
 10
229.4385380779686
 20
20.90674848945977
 30
0.0
 10
229.3777470683586
 20
20.91534728768486
 30
0.0
 10
229.3192577592011
 20
20.92766260855081
 30
0.0
 10
229.2635409837392
 20
20.94619025745911
 30
0.0
 10
229.2100974099747
 20
20.96940543091462
 30
0.0
 10
229.1596465282643
 20
20.99874616319995
 30
0.0
 10
229.1108992256067
 20
21.03199543070411
 30
0.0
 10
229.0658371843344
 20
21.07123259654472
 30
0.0
 10
229.0240142014266
 20
21.11411969948819
 30
0.0
 10
228.986575503205
 20
21.16066074914557
 30
0.0
 10
228.9532328163214
 20
21.21008760221669
 30
0.0
 10
228.9245200836186
 20
21.26264029539583
 30
0.0
 10
228.9000284231082
 20
21.31818074029619
 30
0.0
 10
228.880787930198
 20
21.3769170313118
 30
0.0
 10
228.8652586393515
 20
21.43854227178943
 30
0.0
 10
228.858688856492
 20
21.48096844237105
 30
0.0
 10
228.8553519720765
 20
21.50251728659437
 30
0.0
  0
SPLINE
  5
160
330
1F
100
AcDbEntity
  8
0
  6
Continuous
 62
     7
370
    15
100
AcDbSpline
210
0.0
220
0.0
230
1.0
 70
     8
 71
     3
 72
    31
 73
    27
 74
     0
 42
0.00000001
 43
0.00000001
 12
1.0
 22
0.0
 32
0.0
 13
1.0
 23
0.0
 33
0.0
 40
0.0
 40
0.0
 40
0.0
 40
0.0
 40
0.0440144705761401
 40
0.0874341236677068
 40
0.1301183986578982
 40
0.1725536945581822
 40
0.2145547559681399
 40
0.2562980920971304
 40
0.2984382251332521
 40
0.3408490025880955
 40
0.3827151889670284
 40
0.423924045407532
 40
0.4642462432504183
 40
0.5040736714617965
 40
0.5438619058684917
 40
0.583566724979655
 40
0.6230943188523342
 40
0.663229060768586
 40
0.7035512586114708
 40
0.7439378946861844
 40
0.7845412548000926
 40
0.8257501112405977
 40
0.8677573633885071
 40
0.9107451640323103
 40
0.9549144468914788
 40
0.9999999999999999
 40
0.9999999999999999
 40
0.9999999999999999
 40
0.9999999999999999
 10
230.2393263310509
 20
21.65134541159437
 30
0.0
 10
230.2389241188617
 20
21.63409625928628
 30
0.0
 10
230.2381251300332
 20
21.59983106203803
 30
0.0
 10
230.23406198417
 20
21.54894385495693
 30
0.0
 10
230.2262389558836
 20
21.49913395114045
 30
0.0
 10
230.2157356179731
 20
21.45039474274277
 30
0.0
 10
230.2021028223463
 20
21.40281850337729
 30
0.0
 10
230.1855994421291
 20
21.35626905553587
 30
0.0
 10
230.1654027969208
 20
21.31103612669595
 30
0.0
 10
230.1432495366452
 20
21.26669172113396
 30
0.0
 10
230.1183052380238
 20
21.22423833821145
 30
0.0
 10
230.0906201407283
 20
21.18453633206419
 30
0.0
 10
230.061370534132
 20
21.14699012374061
 30
0.0
 10
230.0298978867358
 20
21.11200238996839
 30
0.0
 10
229.995909665882
 20
21.07980304105214
 30
0.0
 10
229.9598174954465
 20
21.0502009850938
 30
0.0
 10
229.9219093748908
 20
21.02269560914859
 30
0.0
 10
229.8815988235825
 20
20.99840341492341
 30
0.0
 10
229.8397840838854
 20
20.97604962715481
 30
0.0
 10
229.7958613049481
 20
20.95771110695678
 30
0.0
 10
229.7508303099095
 20
20.94131569235302
 30
0.0
 10
229.7040429803831
 20
20.92824707327363
 30
0.0
 10
229.655605293706
 20
20.91800690935004
 30
0.0
 10
229.6054374056763
 20
20.91105178422377
 30
0.0
 10
229.5538024290429
 20
20.90598603394415
 30
0.0
 10
229.518801826197
 20
20.90566892283591
 30
0.0
 10
229.5011218705808
 20
20.90550873958583
 30
0.0
  0
SPLINE
  5
161
330
1F
100
AcDbEntity
  8
0
  6
Continuous
 62
     7
370
    15
100
AcDbSpline
210
0.0
220
0.0
230
1.0
 70
     8
 71
     3
 72
    23
 73
    19
 74
     0
 42
0.00000001
 43
0.00000001
 12
1.0
 22
0.0
 32
0.0
 13
1.0
 23
0.0
 33
0.0
 40
0.0
 40
0.0
 40
0.0
 40
0.0
 40
0.0658076458106951
 40
0.1293942736680557
 40
0.1908940606321913
 40
0.251281068929837
 40
0.3108149644652726
 40
0.3703709874482456
 40
0.4307682625897268
 40
0.4928812506175041
 40
0.555103948155251
 40
0.6160670509938452
 40
0.6772560331746541
 40
0.7382598051991192
 40
0.8007621343762971
 40
0.8647775815744843
 40
0.9310452949994051
 40
1.0
 40
1.0
 40
1.0
 40
1.0
 10
229.573203868444
 20
22.34375660283369
 30
0.0
 10
229.5968402253176
 20
22.34324501315169
 30
0.0
 10
229.6433152084619
 20
22.34223910001649
 30
0.0
 10
229.7113140002151
 20
22.33257993392397
 30
0.0
 10
229.7762248451614
 20
22.31737627126666
 30
0.0
 10
229.8379119928394
 20
22.29613671764492
 30
0.0
 10
229.8964895639391
 20
22.26897702185596
 30
0.0
 10
229.9514186130249
 20
22.23504991506815
 30
0.0
 10
230.0035236365931
 20
22.19541785289669
 30
0.0
 10
230.0518698719845
 20
22.14985205994968
 30
0.0
 10
230.0957298107322
 20
22.09970422505671
 30
0.0
 10
230.1342930521022
 20
22.04578494113993
 30
0.0
 10
230.1670485233814
 20
21.98861821213474
 30
0.0
 10
230.1933924084734
 20
21.92765784399305
 30
0.0
 10
230.214428648726
 20
21.86357778454964
 30
0.0
 10
230.2284300932267
 20
21.795703794149
 30
0.0
 10
230.2377535315033
 20
21.72467564537899
 30
0.0
 10
230.2387951651347
 20
21.67611050061804
 30
0.0
 10
230.2393263310509
 20
21.65134541159437
 30
0.0
  0
SPLINE
  5
162
330
1F
100
AcDbEntity
  8
0
  6
Continuous
 62
     7
370
    15
100
AcDbSpline
210
0.0
220
0.0
230
1.0
 70
     8
 71
     3
 72
    11
 73
     7
 74
     0
 42
0.00000001
 43
0.00000001
 12
1.0
 22
0.0
 32
0.0
 13
1.0
 23
0.0
 33
0.0
 40
0.0
 40
0.0
 40
0.0
 40
0.0
 40
0.2750683690187432
 40
0.5329014600899369
 40
0.7739734595924452
 40
1.0
 40
1.0
 40
1.0
 40
1.0
 10
229.3238849581876
 20
22.30262746287642
 30
0.0
 10
229.3462949393565
 20
22.30881434154263
 30
0.0
 10
229.3897107335027
 20
22.32080044044008
 30
0.0
 10
229.4537912208474
 20
22.33410869208076
 30
0.0
 10
229.5146255534227
 20
22.34213112729649
 30
0.0
 10
229.5541016107663
 20
22.34322653889195
 30
0.0
 10
229.573203868444
 20
22.34375660283369
 30
0.0
  0
LINE
  5
163
330
1F
100
AcDbEntity
  8
0
  6
Continuous
 62
     7
370
    15
100
AcDbLine
 10
229.4379441195
 20
22.8593548934
 30
0.0
 11
229.3238849582
 21
22.3026274629
 31
0.0
  0
LINE
  5
164
330
1F
100
AcDbEntity
  8
0
  6
Continuous
 62
     7
370
    15
100
AcDbLine
 10
230.1579160746
 20
22.8593548934
 30
0.0
 11
229.4379441195
 21
22.8593548934
 31
0.0
  0
LINE
  5
165
330
1F
100
AcDbEntity
  8
0
  6
Continuous
 62
     7
370
    15
100
AcDbLine
 10
230.1579160746
 20
23.0764489105
 30
0.0
 11
230.1579160746
 21
22.8593548934
 31
0.0
  0
LINE
  5
166
330
1F
100
AcDbEntity
  8
0
  6
Continuous
 62
     7
370
    15
100
AcDbLine
 10
229.2895400063
 20
23.0764489105
 30
0.0
 11
230.1579160746
 21
23.0764489105
 31
0.0
  0
CIRCLE
  5
167
330
1F
100
AcDbEntity
  8
0
  6
Continuous
 62
     7
370
    15
100
AcDbCircle
 10
241.6918464181
 20
15.7073509617
 30
0.0
 40
1.523999999999972
  0
CIRCLE
  5
168
330
1F
100
AcDbEntity
  8
0
  6
Continuous
 62
     7
370
    15
100
AcDbCircle
 10
264.5518464181
 20
15.7073509617
 30
0.0
 40
1.523999999999944
  0
ARC
  5
169
330
1F
100
AcDbEntity
  8
0
  6
Continuous
 62
     7
370
    15
100
AcDbCircle
 10
236.6118464181
 20
15.7073509617
 30
0.0
 40
12.11844023330546
100
AcDbArc
 50
102.0987910228
 51
257.9012089772
  0
LINE
  5
16A
330
1F
100
AcDbEntity
  8
0
  6
Continuous
 62
     7
370
    15
100
AcDbLine
 10
289.9518464181
 20
27.5566122758
 30
0.0
 11
234.0718464181
 21
27.5566122758
 31
0.0
  0
ARC
  5
16B
330
1F
100
AcDbEntity
  8
0
  6
Continuous
 62
     7
370
    15
100
AcDbCircle
 10
287.4118464181
 20
15.7073509617
 30
0.0
 40
12.11844023330545
100
AcDbArc
 50
282.0987910228
 51
77.9012089772
  0
LINE
  5
16C
330
1F
100
AcDbEntity
  8
0
  6
Continuous
 62
     7
370
    15
100
AcDbLine
 10
234.0718464181
 20
3.8580896477
 30
0.0
 11
289.9518464181
 21
3.8580896477
 31
0.0
  0
CIRCLE
  5
16D
330
1F
100
AcDbEntity
  8
0
  6
Continuous
 62
     7
370
    15
100
AcDbCircle
 10
287.4118464181
 20
15.7073509617
 30
0.0
 40
1.524000000000058
  0
LINE
  5
16E
330
1F
100
AcDbEntity
  8
0
  6
Continuous
 62
     7
370
    15
100
AcDbLine
 10
226.5788464181
 20
18.8823509617
 30
0.0
 11
226.5788464181
 21
12.5323509617
 31
0.0
  0
LINE
  5
16F
330
1F
100
AcDbEntity
  8
0
  6
Continuous
 62
     7
370
    15
100
AcDbLine
 10
226.5788464181
 20
12.5323509617
 30
0.0
 11
232.9288464181
 21
12.5323509617
 31
0.0
  0
LINE
  5
170
330
1F
100
AcDbEntity
  8
0
  6
Continuous
 62
     7
370
    15
100
AcDbLine
 10
232.9288464181
 20
12.5323509617
 30
0.0
 11
232.9288464181
 21
18.8823509617
 31
0.0
  0
LINE
  5
171
330
1F
100
AcDbEntity
  8
0
  6
Continuous
 62
     7
370
    15
100
AcDbLine
 10
232.9288464181
 20
18.8823509617
 30
0.0
 11
226.5788464181
 21
18.8823509617
 31
0.0
  0
MTEXT
  5
173
330
1F
100
AcDbEntity
  8
0
  6
Continuous
 62
     7
100
AcDbMText
 10
0.0
 20
7.3534328773
 30
0.0
 40
2.63652
 41
0.0
 71
     1
 72
     1
  1
SolidWorks Educational Edition.
  7
SLDTEXTSTYLE0
 73
     1
 44
1.0
  0
MTEXT
  5
174
330
1F
100
AcDbEntity
  8
0
  6
Continuous
 62
     7
100
AcDbMText
 10
0.0
 20
3.3986528773
 30
0.0
 40
2.63652
 41
0.0
 71
     1
 72
     1
  1
For Instructional Use Only.
  7
SLDTEXTSTYLE0
 73
     1
 44
1.0
  0
ENDSEC
  0
SECTION
  2
OBJECTS
  0
DICTIONARY
  5
C
330
0
100
AcDbDictionary
281
     1
  3
ACAD_GROUP
350
D
  3
ACAD_LAYOUT
350
1A
  3
ACAD_MLINESTYLE
350
17
  3
ACAD_PLOTSETTINGS
350
19
  3
ACAD_PLOTSTYLENAME
350
E
  0
DICTIONARY
  5
D
102
{ACAD_REACTORS
330
C
102
}
330
C
100
AcDbDictionary
281
     1
  0
DICTIONARY
  5
1A
102
{ACAD_REACTORS
330
C
102
}
330
C
100
AcDbDictionary
281
     1
  3
Layout1
350
1E
  3
Layout2
350
26
  3
Model
350
22
  0
DICTIONARY
  5
17
102
{ACAD_REACTORS
330
C
102
}
330
C
100
AcDbDictionary
281
     1
  3
Standard
350
18
  0
DICTIONARY
  5
19
102
{ACAD_REACTORS
330
C
102
}
330
C
100
AcDbDictionary
281
     1
  0
ACDBDICTIONARYWDFLT
  5
E
102
{ACAD_REACTORS
330
C
102
}
330
C
100
AcDbDictionary
281
     1
  3
Normal
350
F
100
AcDbDictionaryWithDefault
340
F
  0
LAYOUT
  5
1E
102
{ACAD_REACTORS
330
1A
102
}
330
1A
100
AcDbPlotSettings
  1

  2
none_device
  4

  6

 40
0.0
 41
0.0
 42
0.0
 43
0.0
 44
0.0
 45
0.0
 46
0.0
 47
0.0
 48
0.0
 49
0.0
140
0.0
141
0.0
142
1.0
143
1.0
 70
   688
 72
     0
 73
     0
 74
     5
  7

 75
    16
147
1.0
148
0.0
149
0.0
100
AcDbLayout
  1
Layout1
 70
     1
 71
     1
 10
0.0
 20
0.0
 11
420.0
 21
297.0
 12
0.0
 22
0.0
 32
0.0
 14
1.0000000000E+20
 24
1.0000000000E+20
 34
1.0000000000E+20
 15
-1.0000000000E+20
 25
-1.0000000000E+20
 35
-1.0000000000E+20
146
0.0
 13
0.0
 23
0.0
 33
0.0
 16
1.0
 26
0.0
 36
0.0
 17
0.0
 27
1.0
 37
0.0
 76
     0
330
1B
  0
LAYOUT
  5
26
102
{ACAD_REACTORS
330
1A
102
}
330
1A
100
AcDbPlotSettings
  1

  2
none_device
  4

  6

 40
0.0
 41
0.0
 42
0.0
 43
0.0
 44
0.0
 45
0.0
 46
0.0
 47
0.0
 48
0.0
 49
0.0
140
0.0
141
0.0
142
1.0
143
1.0
 70
   688
 72
     0
 73
     0
 74
     5
  7

 75
    16
147
1.0
148
0.0
149
0.0
100
AcDbLayout
  1
Layout2
 70
     1
 71
     2
 10
0.0
 20
0.0
 11
0.0
 21
0.0
 12
0.0
 22
0.0
 32
0.0
 14
0.0
 24
0.0
 34
0.0
 15
0.0
 25
0.0
 35
0.0
146
0.0
 13
0.0
 23
0.0
 33
0.0
 16
1.0
 26
0.0
 36
0.0
 17
0.0
 27
1.0
 37
0.0
 76
     0
330
23
  0
LAYOUT
  5
22
102
{ACAD_REACTORS
330
1A
102
}
330
1A
100
AcDbPlotSettings
  1

  2
none_device
  4

  6

 40
0.0
 41
0.0
 42
0.0
 43
0.0
 44
0.0
 45
0.0
 46
0.0
 47
0.0
 48
0.0
 49
0.0
140
0.0
141
0.0
142
1.0
143
1.0
 70
  1712
 72
     0
 73
     0
 74
     0
  7

 75
     0
147
1.0
148
0.0
149
0.0
100
AcDbLayout
  1
Model
 70
     1
 71
     0
 10
0.0
 20
0.0
 11
304.8
 21
152.4
 12
0.0
 22
0.0
 32
0.0
 14
0.0
 24
0.0
 34
0.0
 15
304.8
 25
152.4
 35
0.0
146
0.0
 13
0.0
 23
0.0
 33
0.0
 16
1.0
 26
0.0
 36
0.0
 17
0.0
 27
1.0
 37
0.0
 76
     0
330
1F
331
29
  0
MLINESTYLE
  5
18
102
{ACAD_REACTORS
330
17
102
}
330
17
100
AcDbMlineStyle
  2
Standard
 70
     0
  3

 62
   256
 51
90.0
 52
90.0
 71
     2
 49
0.5
 62
   256
  6
BYLAYER
 49
-0.5
 62
   256
  6
BYLAYER
  0
ACDBPLACEHOLDER
  5
F
102
{ACAD_REACTORS
330
E
102
}
330
E
  0
ENDSEC
  0
EOF
